<svg xmlns="http://www.w3.org/2000/svg" viewBox="0 0 366 366"><g id="b0609f8f-645c-4bd0-9c8d-3ab6c0eeb299" data-name="Layer 2"><g id="ac9d68cc-b035-4860-8286-93b02a88ab35" data-name="Layer 1"><g id="b76d6294-a3d7-4ab9-85b9-3eb3680af094" data-name="Ellipse 1"><path d="M183,8A175,175,0,0,1,306.74,306.74,175,175,0,1,1,59.26,59.26,173.82,173.82,0,0,1,183,8m0-8A183,183,0,1,0,366,183,183,183,0,0,0,183,0Z" style="fill:#222"/></g><path d="M182.31,150.84a27.39,27.39,0,0,1,18.18,47.87c16.16,7.31,27.56,24,27.9,43.65,0,.22,0,.79,0,.79a6.62,6.62,0,0,1-6.45,6.78H142.63a6.61,6.61,0,0,1-6.44-6.78s0-.56,0-.79c.35-19.6,11.74-36.34,27.9-43.65a27.39,27.39,0,0,1,18.19-47.87m0-3a30.39,30.39,0,0,0-23.18,50c-15.52,8.73-25.55,25.69-25.91,44.34,0,.28,0,.65,0,.87v.06a9.63,9.63,0,0,0,9.44,9.78H222a9.63,9.63,0,0,0,9.45-9.78v-.06c0-.22,0-.59,0-.87-.36-18.66-10.39-35.61-25.9-44.34a30.39,30.39,0,0,0-23.18-50Z" style="fill:#999"/><path d="M106.26,134.87a23.15,23.15,0,0,1,23,20.91l8.53-4.2s-1.66,13.26-9.62,13.79a23.19,23.19,0,0,1-6.58,9.94,40.19,40.19,0,0,1,20.53,21.76,53.69,53.69,0,0,0-16.72,21.51H72.74a5.59,5.59,0,0,1-5.44-5.73s0-.48,0-.66c.29-16.56,9.91-30.71,23.57-36.88a23.19,23.19,0,0,1-6.58-9.94c-8-.53-9.62-13.79-9.62-13.79l8.53,4.2a23.15,23.15,0,0,1,23-20.91m0-3A26,26,0,0,0,81,151.33l-5-2.44-5-2.45.69,5.52c.08.59,1.82,13.71,10.39,16.07A26.41,26.41,0,0,0,86,174.48C73,182,64.63,196.33,64.33,212.07c0,.29,0,.72,0,.72v.06a8.6,8.6,0,0,0,8.44,8.73H127.4l.79-1.81A50.6,50.6,0,0,1,144,199.46l1.81-1.39-.84-2.12a43.15,43.15,0,0,0-18.39-21.48,26.16,26.16,0,0,0,3.86-6.44c8.56-2.36,10.31-15.48,10.39-16.07l.69-5.52-5,2.45-5,2.44a26,26,0,0,0-25.28-19.46Z" style="fill:#999"/><path d="M259.81,116.07a6.53,6.53,0,0,1,1.85,12.8v5.23A22.94,22.94,0,0,1,272,137.56l3.31-4.65a6.52,6.52,0,1,1,5.19,2.58,6.71,6.71,0,0,1-2.21-.39L275,139.77a23.12,23.12,0,0,1,.1,34.68c13.66,6.18,23.28,20.32,23.57,36.88,0,.19,0,.66,0,.66a5.59,5.59,0,0,1-5.44,5.73H238.75a53.89,53.89,0,0,0-15.32-20.41,40.24,40.24,0,0,1,20.95-22.86,23.12,23.12,0,0,1-.21-34.41l-3.39-4.78a6.68,6.68,0,0,1-1.68.23,6.55,6.55,0,1,1,4.84-2.16l3.16,4.45A23.08,23.08,0,0,1,258,134.09v-5.22a6.53,6.53,0,0,1,1.85-12.8m0-3A9.53,9.53,0,0,0,255,130.81v.65a26.21,26.21,0,0,0-7,2.36l-.38-.54a9.53,9.53,0,1,0-8.49,5.21h.29l.88,1.24a26.11,26.11,0,0,0-.82,33.9,43.74,43.74,0,0,0-18.84,22.65l-.74,2,1.66,1.35A51.06,51.06,0,0,1,236,218.91l.78,1.81h56.48A8.6,8.6,0,0,0,301.7,212v-.06s0-.43,0-.72c-.3-15.74-8.66-30.06-21.64-37.59a26.1,26.1,0,0,0-1.1-34.2l.69-1c.3,0,.61.05.91.05A9.54,9.54,0,1,0,271,129a9.43,9.43,0,0,0,.79,3.79l-.64.9a26,26,0,0,0-6.48-2.15v-.68a9.53,9.53,0,0,0-4.85-17.74Z" style="fill:#999"/></g></g></svg>