<svg id="b2f90833-a10e-4408-a1f3-d34194600d2f" data-name="Layer 1" xmlns="http://www.w3.org/2000/svg" viewBox="0 0 512 512"><circle cx="256" cy="256" r="256" style="fill:#5c6bc0"/><path d="M299.41,155.33l-4,3.9C340.35,172,362.09,192,362.09,192,245,134.4,148.4,190.14,146.18,190.61c0,0,21.69-21.37,69.54-32.79l-2.92-2.88s-36.24-1.36-75.35,27.1h0s-39.1,67.07-39.1,149.76c0,0,21.67,37.12,81.11,38.52,0,0,8.68-11.37,17.45-21.37C163.52,339,150.53,319,150.53,319a70.66,70.66,0,0,1,7.25,4.26h1.28a1.71,1.71,0,0,1,1.3.64V324a1.64,1.64,0,0,0,1.3.64c71,28.8,130.31,35.46,198-7.17,0,0-13,20-47.79,29.95,7.17,9.95,17.24,21.34,17.24,21.34,59.46-1.28,82.56-38.4,83.86-36.82,0-82.56-39.34-149.76-39.34-149.76C338.48,156.5,305.62,155.35,299.41,155.33ZM205.57,306.18c-15.17,0-27.52-12.8-27.52-28.46s12.35-28.55,27.52-28.55l.08-.06c15.17,0,27.44,12.8,27.44,28.48S220.74,306.18,205.57,306.18Zm98.52,0c-15.17,0-27.52-12.8-27.52-28.46s12.41-28.55,27.52-28.55v-.06c15.23,0,27.52,12.8,27.52,28.48S319.25,306.18,304.09,306.18Z" transform="translate(0 0)" style="fill:#fff"/></svg>