<svg xmlns="http://www.w3.org/2000/svg" viewBox="0 0 366 366"><g id="faa5b85f-f2d2-4a3e-b840-9d4528aa97ea" data-name="Layer 2"><g id="bff89d50-555f-4ee1-831d-32549aefe929" data-name="Layer 1"><path d="M10.64,147.92c.46,0,1.09,0,1.6,0,0,.19.07.38.09.51a6.11,6.11,0,0,1-.56,3.92,11.48,11.48,0,0,0-1.18,3.25,25.51,25.51,0,0,0-.79-2.69,8.82,8.82,0,0,0-1.73-3.08c.12-.65.24-1.29.37-1.93h2.2m26.29,8.49a2.87,2.87,0,0,1,2.18.8c1.88,2.31,4.62,2.9,8.15,3.06,2.7.13,3.86.67,4.07.85.42.42.73.77.9,1A28.62,28.62,0,0,0,56,166.73c1.56,1.72,4.6,4.59,7.44,4.59,2.46,0,6,2.71,7,5.36a21.48,21.48,0,0,1,1.16,4.07,4.43,4.43,0,0,0,3.74,4.36,3.64,3.64,0,0,0,3.41,2.25,4.41,4.41,0,0,0,1.17-.17,5.76,5.76,0,0,1,1.61.88,18.62,18.62,0,0,0,8,3c3.59.41,10.22,5.18,11.34,7.67.56,1.23.84,1.86-3,7.8-3,4.57-3.62,6.57-3.82,11.88a30.91,30.91,0,0,1-.4,4.86c-.11,0-.3.14-.64.27-3.91,1.46-3.67,4.83-3.5,7.29,0,.12,0,.25,0,.4-5.55.31-10.16,5.58-10.18,11.79,0,4.4-5.39,13.65-7.48,14.53-4.35,1.54-4.5,4.26-3.87,6.26A1.72,1.72,0,0,1,68,265a1.87,1.87,0,0,1-1.21.55c-1.68.32-3.53.88-4.46,2.53a3.77,3.77,0,0,0-.25,3.12,2.18,2.18,0,0,1-.08.65,28.78,28.78,0,0,0-1.21,6.24,13.63,13.63,0,0,1-.77,3.56,4,4,0,0,0,1.06,6.28,11,11,0,0,0,1,.57c0,.49,0,1.12-.09,1.87-.34,3.52,0,6.29,1.09,8.47l-.55,0a4.33,4.33,0,0,1-2.19-.71,18.51,18.51,0,0,0-3-5.39,19.08,19.08,0,0,1-2-3.16c-.24-1.95-2-3.54-2.81-4.2a6.45,6.45,0,0,0,0-5.81,4.65,4.65,0,0,0-2.64-2.19,8.25,8.25,0,0,1-.58-1.64c-.54-2.14-1.59-5.48-2.33-7.43a10.45,10.45,0,0,1-.66-4.54c.41-2.18-.13-6.64-.88-9.93a133.38,133.38,0,0,1-2-16.1c-.76-12-1.51-14.85-8.33-19.9A16.32,16.32,0,0,1,33,216a3.24,3.24,0,0,0-.63-1.51,3.17,3.17,0,0,0-2.55-1.26l-.32,0a48.51,48.51,0,0,1-2.79-5.43c-1.58-3.38-4.31-8-6.26-10a5.46,5.46,0,0,1-1.25-6.5c.38-.73,1.4-2.65.31-4.46a3.44,3.44,0,0,0-.62-.75c.54-2.08,2.56-6.13,4.66-7.94,3.36-2.88,3.39-10.11,1.94-14,0-.16-.11-.3-.17-.45,1.05,0,3.74-.53,4.27-4.32a1.13,1.13,0,0,1,.63-.45,48.4,48.4,0,0,0,4.62-2,4.58,4.58,0,0,1,2.09-.51M9.1,132.79H9a179.48,179.48,0,0,0-4.25,18.3A4.37,4.37,0,0,1,7,153.94a17.15,17.15,0,0,1,1,4.28,3.47,3.47,0,0,0,2.14,2.46c1.17.55,2.14,1.32,2.14,1.72s.53.73,1.17.73a3.5,3.5,0,0,1,2.24,1.3,3.59,3.59,0,0,0,2.24,1.3,1.25,1.25,0,0,0,1.18-1.3,1.47,1.47,0,0,1,1.6-1.3c3,0,3.77,10.33.92,12.79-3.85,3.3-7.54,12.35-5,12.35.58,0,.58.55,0,1.67a8.5,8.5,0,0,0,1.78,10c1.44,1.43,4,5.52,5.66,9.1,2.55,5.48,3.8,7.45,4.91,7.45a1.2,1.2,0,0,0,.63-.2.59.59,0,0,1,.29-.11c.19,0,.27.19.17.51-.12.47,1.39,2.05,3.37,3.52,5.75,4.26,6.37,5.8,7.13,17.68a133.79,133.79,0,0,0,2,16.58c.75,3.29,1.13,7.21.85,8.71a13.23,13.23,0,0,0,.8,6.15c.72,1.89,1.72,5.09,2.23,7.11s1.45,3.69,2.09,3.69c1.7,0,2.32,2.41,1.13,4.36-.89,1.44-.76,1.89.87,3.05A4.37,4.37,0,0,1,52.41,290c0,.61,1.14,2.63,2.54,4.51s2.55,3.87,2.56,4.45c0,1.31,2.76,2.85,5.07,2.85,1.19,0,1.58.41,1.24,1.3s.21,1.25,2.94,1.25h.72a22,22,0,0,0,5.77-.71c1.31-.52.89-.91-2.32-2.16-5-1.92-6.49-4.73-5.91-10.84.23-2.44.09-4.44-.33-4.45a5.22,5.22,0,0,1-2-.8c-.93-.6-1-1.07-.25-2,.54-.66,1.14-2.93,1.34-5.05a26,26,0,0,1,1-5.38,4.43,4.43,0,0,0,.16-2.74c-.32-.84.42-1.38,2.42-1.76,3.06-.58,4.35-2.68,3.44-5.6-.4-1.25.08-1.84,2-2.53,3.56-1.25,9.47-12.07,9.48-17.35,0-4.78,3.55-8.82,7.7-8.82,2.64,0,2.69-.08,2.44-3.59-.21-3,0-3.71,1.56-4.27,2.53-1,2.76-1.56,3-7.83.18-4.75.66-6.24,3.33-10.35,4-6.08,4.51-7.89,3.26-10.67-1.64-3.66-9.31-8.91-13.74-9.42a15.59,15.59,0,0,1-6.48-2.41,7,7,0,0,0-3.53-1.52,1.25,1.25,0,0,0-.45.07,1.76,1.76,0,0,1-.61.14c-.47,0-.73-.31-.73-.89s-.77-1.27-1.71-1.27a1.51,1.51,0,0,1-1.71-1.49,21.26,21.26,0,0,0-1.35-5.08c-1.44-3.84-6.09-7.31-9.79-7.31-1.18,0-3.23-1.41-5.23-3.61A37.73,37.73,0,0,1,55,160.82,7.74,7.74,0,0,0,53.46,159c-1-1-3.09-1.59-6.06-1.73-3.34-.16-4.92-.68-6-2a5.76,5.76,0,0,0-4.51-1.91,7.6,7.6,0,0,0-3.47.85c-1.1.56-3,1.4-4.27,1.87A3.73,3.73,0,0,0,26.62,159c-.17,1.23-.59,1.76-1.47,1.76a3.37,3.37,0,0,1-.52-.05,44.66,44.66,0,0,0-5.37-.31c-2.85,0-4-.46-4.92-2-1.11-1.7-1.09-2.26.12-4.72a9,9,0,0,0,.82-5.79c-.54-2.9-.66-3-4.64-3H6.55l2.4-5c3-6.2,3-7.14.15-7.14Z" style="fill:#999"/><path d="M86.59,33.31a8.53,8.53,0,0,0,1.58,2.62,2.59,2.59,0,0,1,.18.21c-.07.07-.16.16-.29.27a4.31,4.31,0,0,0-3.31-1.89h0c.61-.41,1.23-.81,1.85-1.21m-4.86,3.25a8.18,8.18,0,0,0-.08,4.36,4.94,4.94,0,0,1,0,1.64A3.31,3.31,0,0,0,79.31,44a5.43,5.43,0,0,0-1.58-.52c-.06-.18-.13-.41-.2-.68a12,12,0,0,0-.9-2.52q2.52-1.89,5.1-3.67m7.32-8.34a182.36,182.36,0,0,0-17,11.7c1.24.28,1.93,1.27,2.55,3.59.52,2,1.13,3,1.77,3a.74.74,0,0,0,.25,0,1,1,0,0,1,.4-.07,2.53,2.53,0,0,1,1.81,1c.7.85,1.31,1.27,1.76,1.27s.84-.58.84-1.72c0-.83.24-1.37.56-1.37a.41.41,0,0,1,.2.06,1,1,0,0,0,.55.17c1.25,0,2.27-2.64,1.85-5.32-.32-2-.29-2.93.13-2.93s.79.48,1.48,1.42c.51.7.93,1,1.43,1a2.31,2.31,0,0,0,1.17-.44c2.86-1.77,3.37-3.59,1.58-5.6A5.82,5.82,0,0,1,89,29.55a7.73,7.73,0,0,0,0-1.33Z" style="fill:#999"/><path d="M68.45,46.71c1.94.81,3.06,2.34,3,2.87A5.57,5.57,0,0,0,74,55a5.05,5.05,0,0,0,2.78.94,4,4,0,0,0,1.67-.36c.17,2.78.94,4.9,2.31,6.29a16.11,16.11,0,0,1,2.13,3.08,4.47,4.47,0,0,1,.37.83.63.63,0,0,1,0,.14,3.29,3.29,0,0,0-1-.18c-1.25,0-2.15.64-3.6,2-.37.35-1.17.66-4.49.66H72.37c-7.09,0-7.9,1.34-8.43,2.22A3.42,3.42,0,0,0,63.86,74a3.48,3.48,0,0,0,1.43,1.39,5.47,5.47,0,0,0-1,3.24h-.1a5,5,0,0,0-4.32,2.45,9.75,9.75,0,0,1-2.29,1c-1.42.44-5,1.53-5.56,4.75l-.62.13c-2.47.47-4.1,1.3-4.89,2.46a11.51,11.51,0,0,0-5.52,6,4.26,4.26,0,0,1-.59.52A5.48,5.48,0,0,0,38,99.59a3.62,3.62,0,0,0,0,.57,12.91,12.91,0,0,1-3.09,2.76,5.71,5.71,0,0,0-3.8,1.72c-1.51,0-5.71.75-6.94,8.22A3.72,3.72,0,0,0,21,111.08a5.27,5.27,0,0,0-.75-.42A177.75,177.75,0,0,1,46.2,69.07a4.54,4.54,0,0,0,2.68.83c2.24,0,4.32-1.7,5.32-4.32.5-1.32,1.15-3.27,1.47-4.41a1.24,1.24,0,0,1,.56-.41c2.4-.61,4.25-2.48,5.51-5.54a42.53,42.53,0,0,1,2.58-4.92c1.42-1.28,2.78-2.46,4.13-3.59m13.09,28a5.09,5.09,0,0,0,.46.74,8,8,0,0,0-1-.19c.15-.17.31-.36.49-.55M67.83,43.31c-2,1.64-3.93,3.33-5.85,5.06a47.35,47.35,0,0,0-3,5.71q-1.32,3.22-3.48,3.77a4,4,0,0,0-2.67,2.42c-.29,1-.92,2.93-1.42,4.25s-1.54,2.38-2.51,2.38c-1.53,0-1.94-1.47-1.22-4.12a180.74,180.74,0,0,0-31.59,50.08c1.67,0,3.18.42,3.45.86a1,1,0,0,0,.87.54.83.83,0,0,0,.4-.11.35.35,0,0,1,.21-.07c.86,0,1.75,2.85,1.1,3.92-.28.46.08,2.27.8,4s1.17,2.55,1.71,2.55a1.5,1.5,0,0,0,.88-.45c.9-.76,1.28-2.76,1.28-6.65,0-6.07,1.65-9.83,4.32-9.83a2.7,2.7,0,0,0,2.09-.86,2.58,2.58,0,0,1,2-.87c1.73,0,6.67-4.9,5.82-5.76-.32-.33.19-1.13,1.13-1.8s1.7-1.57,1.7-2c0-1.08,3.19-4.28,4.27-4.28a.83.83,0,0,0,.86-.77c0-.42,1.35-1,3-1.34,2.18-.41,3-1,3-2.23s1-2,3.51-2.73c1.92-.58,3.7-1.57,3.93-2.2a2,2,0,0,1,1.8-1.11h0c1.24,0,1.23.13-.1.91S62.1,85.89,63,85.89a.9.9,0,0,0,.34-.09c.35-.18,2.28-1,4.27-1.91,3.74-1.62,4.91-4,2-4-2.56,0-3-1.66-1-3.81s1.62-3.12-1-3.12c-.89,0-1.37-.39-1.09-.86s2.85-.78,5.87-.78h1.76c3.78,0,5.34-.37,6.52-1.44.88-.81,1.39-1.18,1.57-1.18.36,0-.72,1.58-2.89,4-3.82,4.22-3.82,5.47,0,5.47,1.9,0,3.2.48,3.51,1.3a2,2,0,0,0,1.78,1.27,1.14,1.14,0,0,0,1.21-1c.3-2.69-.16-5.43-.95-5.7-1.26-.43-1.08-2.44.49-5.52,1.17-2.29,1.2-3,.21-4.91A18.82,18.82,0,0,0,83,59.77c-1-1-1.5-2.89-1.5-5.39,0-2.89-.43-4.37-1.23-4.37-.45,0-1,.49-1.71,1.48s-1.15,1.43-1.7,1.43a2.25,2.25,0,0,1-1.14-.45,2.67,2.67,0,0,1-1.24-2.35c.43-2.4-2.27-5.46-5.75-6.51-.3-.09-.58-.19-.86-.3Z" style="fill:#999"/><path d="M22.35,129.31c-2.92,0-7.54,2-7.54,3.21,0,.73.77,1.1,1.68,1.1a3.28,3.28,0,0,0,2.29-.88,1.64,1.64,0,0,1,1.19-.38c2.3,0,6.59,2.3,7.55,4.43.55,1.24,1.08,1.78,1.87,1.78a2.48,2.48,0,0,0,.79-.15,3.73,3.73,0,0,1,1.09-.15,4.33,4.33,0,0,1,2.11.51c1.4.82,1.4.89,0,.91-2.32.05-.84,2.48,1.75,2.88a29.89,29.89,0,0,0,3.58.45,1.18,1.18,0,0,0,1.27-.7,2.8,2.8,0,0,1,2.18-.87c4,0,.73-3.32-4-4.06A12.49,12.49,0,0,1,33.81,136a44,44,0,0,0-8.11-4.66c-.82-.28-1.49-.86-1.49-1.28s-.84-.77-1.86-.77Z" style="fill:#999"/><path d="M260.46,215.92a3.54,3.54,0,0,1-.08.57c-1.93,3.33-6.09,16.61-6.41,18.22,0,.19-.07.36-.11.52l-1.27.38-.35.09c-.48-1.89-.22-6,.41-7a9.18,9.18,0,0,0,1.32-7c0-.19-.09-.56-.12-.88.47-.27,1.23-.63,1.64-.83,2.35-1.13,3.92-2.18,5-4.06m.25-6.8c-.91,0-1.6,1.06-2.09,3.17-.62,2.64-1.42,3.54-4.42,5-3.51,1.69-3.65,1.91-3.2,4.87a6.3,6.3,0,0,1-.76,4.77c-1.43,1.92-1.7,8.39-.44,10.77.44.83.83,1.2,1.62,1.2a8,8,0,0,0,2-.39c1.53-.45,2.83-.81,2.9-.81a12.85,12.85,0,0,0,.59-2.39c.6-3,5.34-16.6,6-17.31.93-.94.55-6.8-.5-7.87a2.67,2.67,0,0,0-1.74-1Z" style="fill:#999"/><path d="M264.18,27.5l1.82,0a26.21,26.21,0,0,1,3.9.33,3.88,3.88,0,0,0,1.75.82,178,178,0,0,1,86.28,122.25,3.88,3.88,0,0,0-1.29-.22,3.69,3.69,0,0,0-2.74,1.23,23,23,0,0,0-.73-2.44c-1-2.56-1.95-5.21-5.8-5.21-.45,0-.93,0-1.4.07h0a8.46,8.46,0,0,1,.68-3.23c.87-1.16,2.49-3.33,1.36-5.58s-4-2.3-5.82-2.3a5.84,5.84,0,0,1-2.22-.39,5.25,5.25,0,0,0-4-2.16,3.71,3.71,0,0,0-3.61,3,2.42,2.42,0,0,1-.35.11,7,7,0,0,0-4.28,2.32c-1.91.69-3.31,2.78-3.88,3.77a24.49,24.49,0,0,1-3.86,4.44c-1,.86-4.09,3.88-3.86,6.7.55,6.42-.84,8.81-1.46,9.55l-.19.22c-.46-.78-1-1.82-1.63-3.1-1.61-3.41-3.75-7.51-4.86-9.34-1.45-2.38-1.94-3.91-2.15-8.83-.18-4.22-2.69-4.85-4.17-4.85a8.57,8.57,0,0,0-1.59.18,2.5,2.5,0,0,1-1.23-.5A6.82,6.82,0,0,0,296.8,131a5.52,5.52,0,0,0-2.36-1.55c-2-2.77-4.78-3-10.68-3.25-6.08-.26-6.4-.57-7.48-1.59s-2.69-2.33-4.5-2.33a3.89,3.89,0,0,0-2.45.86h-.07a3.29,3.29,0,0,1-1.84-.58,6.53,6.53,0,0,0-3.4-2.19,3.67,3.67,0,0,1-.46-.67,6.6,6.6,0,0,0-5.82-3.78c-1,0-3,0-4.08,1.78a4.11,4.11,0,0,0,.21,4.15,17.41,17.41,0,0,0,3.22,4,4.88,4.88,0,0,1,.85,1,4.88,4.88,0,0,0,3,3.59,3.56,3.56,0,0,0,.31.73c1.14,2,3.76,2,4.74,2a8.92,8.92,0,0,0,5.51-1.92A5.42,5.42,0,0,0,275.4,134a3.44,3.44,0,0,1,0,2.43,6.9,6.9,0,0,0-.91,3.19,22.91,22.91,0,0,1-5,4.59,13.62,13.62,0,0,0-4.77,3c-1.73,1.75-8,4.56-10.36,4.63a9.26,9.26,0,0,0-1.49.15c-.17-.59-.38-1.27-.63-2.07-1.78-5.85-3.85-9.54-7.15-12.74a6.69,6.69,0,0,1-1.23-1.49,5,5,0,0,0-2-5.07,20.43,20.43,0,0,1-2.48-4c-1.32-2.67-4-7.14-7.46-7.14a3.76,3.76,0,0,0-2.69,1.12c-1.65,1.67-.92,3.63,1.28,8a33.52,33.52,0,0,1,1.83,4.23,6.4,6.4,0,0,0,2.23,3.93,5,5,0,0,1,.79,1.76,28.44,28.44,0,0,0,9.21,15.11c3.32,2.66,4,3.18,4.29,3.37a5.82,5.82,0,0,0,1.64,3.57,8.16,8.16,0,0,0,6.08,2.14,21.13,21.13,0,0,0,5.39-.8c-1.53,4-5.41,11.21-9.14,15.26A106.88,106.88,0,0,0,242,190.76c-1.86,2.86-1.95,9.34-1.2,12.73a6.67,6.67,0,0,0,1.43,3.1,29.38,29.38,0,0,1,.82,5c.43,4.66.43,4.66-.49,5.53a6.62,6.62,0,0,1-1.5,1.07c-1.95.24-4.47,2-5.51,2.85-3.89,3-4.11,4.27-3.62,10a32.31,32.31,0,0,1,.19,3.26l-.86.52c-2.71,1.55-4.06,3.69-3.68,5.68-.36,1.16-2.48,4.79-7.53,10.28l-3.68,4-10.88.16-.14-.44c-.46-1.52-1.33-3.93-2-5.49a27.21,27.21,0,0,1-1.2-3.38,7.68,7.68,0,0,0-1.23-2.84,94.31,94.31,0,0,1-3.28-12.7,21.57,21.57,0,0,0-3.07-7.54c-2.09-3.14-2.11-6-.06-8.46,2.74-3.3,2.91-4.93,2.4-9.94-.58-5.6-1.92-8.48-6.54-16.21a10.75,10.75,0,0,1-1.64-4.16c2-1.8,2.2-5.37.41-9.35a6.18,6.18,0,0,0-6-4,3.13,3.13,0,0,1-1.6-.73,8.77,8.77,0,0,0-6.88-2.68,26,26,0,0,0-6.36.95,57.73,57.73,0,0,1-9.1,1c-1.2.05-2,.06-2.64.06-2.71,0-3.09-.2-5.29-1.82-3.89-2.86-5.42-4.6-6.8-7.78a19.31,19.31,0,0,0-3.19-5.12.68.68,0,0,1-.08-.15c.5-2.32.89-9.85.94-10.75.51-10.17,1.93-13.42,8.89-20.47,5-5,5.87-7.26,6-8.26a3.5,3.5,0,0,1,.87-.84,15,15,0,0,0,4.43-5c.15-.3.26-.49.33-.61H163c.25,0,.56,0,.94,0s.62,0,1,0a45.58,45.58,0,0,0,8.19-.93,58.62,58.62,0,0,1,10-.87h.85l3.3.08v.12c-.28,4.84,1.16,6.06,5.63,7.26a13.89,13.89,0,0,1,4.09,1.85,10.2,10.2,0,0,0,6.65,2.92,5.7,5.7,0,0,0,5-2.7l.07-.09a2,2,0,0,1,.8-.1,28.54,28.54,0,0,1,6.93,1.46A42.9,42.9,0,0,0,226.75,119h.51c3.05-.1,6.5-.22,7.32-4.16,2.48-.31,3.13-1.79,3.29-2.69a3.15,3.15,0,0,0-1.27-3.08,1.93,1.93,0,0,1,0-.45c0-6.41-3.45-7.1-4.91-7.1a5.6,5.6,0,0,0-2.7.75l-.08,0a11.22,11.22,0,0,0-3.64-.47l-.71,0h-.31a6.42,6.42,0,0,1-1.15-.09,4.25,4.25,0,0,0-2.84-1.06,4.1,4.1,0,0,0-1.34-3.08,2.63,2.63,0,0,1-.25-1,7.9,7.9,0,0,0-.08-1.13,6.34,6.34,0,0,0,4.62,1.87,9.32,9.32,0,0,0,5.11-1.67,1.78,1.78,0,0,1,1.24-.43,22.72,22.72,0,0,1,3.58.52,25.89,25.89,0,0,0,4.87.58c3.76,0,5-1.68,5.42-3.08.9-3.18-2.38-5.68-5.33-7.5-2.29-1.41-4.06-2.28-5.85-2.28a4.93,4.93,0,0,0-.78.06l-.17-.19a3.68,3.68,0,0,0-2.7-1,15.17,15.17,0,0,0-4.81,1.19A11.6,11.6,0,0,0,221,85a4.12,4.12,0,0,0-3.23,2,7.33,7.33,0,0,0-.86,5.48,4,4,0,0,0-2.37-.8,5.85,5.85,0,0,0-4.11,2.07,6.87,6.87,0,0,0-1.84,3.16,26.67,26.67,0,0,1-1.33-2.35,20.65,20.65,0,0,0-6-6.76,29.74,29.74,0,0,1-4.15-3.32c-1.34-1.5-2.43-2.13-3.63-2.13a3.08,3.08,0,0,0-3.1,3.12,5.87,5.87,0,0,0,.83,2.68,8,8,0,0,0-3.93-2.34,6.86,6.86,0,0,0-1.45-.15,7.21,7.21,0,0,0-5.4,2.24,3.69,3.69,0,0,0-.41.59,4.3,4.3,0,0,0-3.49,2q-.36,0-.75,0a24.91,24.91,0,0,0-2.86.23c-2.15.27-3.43,2.38-3.7,6.1-.2,2.94-1.62,4.25-4.59,4.25a15.4,15.4,0,0,1-4.48-.79,4.38,4.38,0,0,1-1.65-.73.67.67,0,0,1-.07-.23,3.24,3.24,0,0,1,0-.85c1.08-1.62,1.25-4.45,1.25-6.1a9.4,9.4,0,0,1,.16-1.77,31.15,31.15,0,0,1,4.09-.27c3.26,0,6.84-.29,8.08-3.14,1.13-2.6-.7-5.12-2.16-6.78a3.55,3.55,0,0,0,1.21-1.1,16.33,16.33,0,0,0,5.37-3.14l.79-.65c4.73-4,4.73-4,7.74-4.47l.55-.09a5.13,5.13,0,0,0,3.79-2,3.39,3.39,0,0,0,.28-.53,13,13,0,0,0,2.35.71,12.78,12.78,0,0,0,2.62.24c3.34,0,9.37-1,11.73-3.31a10.8,10.8,0,0,0,2.28-3.91,3.72,3.72,0,0,0,3.63-2.1,3.09,3.09,0,0,0,.1-2.21l.41,0c1.37,0,4.68-.22,5.92-2.3a3.45,3.45,0,0,0,.13-3.53,4,4,0,0,0-3.79-1.87,20.13,20.13,0,0,0-5.19.93,6.62,6.62,0,0,1-1.71.3,1.28,1.28,0,0,1-.37,0,3,3,0,0,1-.16-1.13,3.49,3.49,0,0,1,1.21-2.73c1.64-1.56,2.45-3,2.47-4.48a3.64,3.64,0,0,0-1.06-2.67,3.28,3.28,0,0,0-2.35-1c-.68,0-2.29,0-6.75,4s-4.62,5.78-4.63,6.56c0,1.62,1.19,3.31,1.9,4.14-.33.6-.87,1.46-1.14,1.89a40.32,40.32,0,0,1-2.77,3.92c-.09-.26-.19-.54-.29-.84-1.12-3.4-1.92-5.86-4.78-5.86a5.66,5.66,0,0,0-3.19,1.27c-.45.3-.77.49-1,.6a10.21,10.21,0,0,1-.12-4.16,22.85,22.85,0,0,1,2-1.28,20.33,20.33,0,0,0,6.29-6.06c2.31-3.74,6.91-7.19,8.32-7.4A5.14,5.14,0,0,0,206,34.23a15.2,15.2,0,0,1,2.33-.69,14.07,14.07,0,0,1,2.66-.39,1.2,1.2,0,0,1,.83.21A30,30,0,0,0,219.2,36c2.38.56,4.06,1,5.25,1.42-1.86.11-4.4.69-5.21,3.83a4.24,4.24,0,0,0,.42,3.79,3.07,3.07,0,0,0,2.43,1.2h.25a4,4,0,0,0,2.4.9,3.2,3.2,0,0,0,2.5-1.2,9.73,9.73,0,0,0,1.83.19,3.54,3.54,0,0,0,3.35-1.71,3.21,3.21,0,0,0,.4-1.44,6.1,6.1,0,0,1,.7-.79A12,12,0,0,0,235.27,40a4.11,4.11,0,0,0,2.23.69c1.29,0,2.67-.49,5.49-1.94a18.8,18.8,0,0,1,3.08-1.29,4.93,4.93,0,0,0,1.12.12c.7,0,5.52-.69,7.81-2.92.65.13,1.72.39,3.44.9a4.77,4.77,0,0,0,1.42.23,3.45,3.45,0,0,0,2.71-1.24,4.88,4.88,0,0,0,.65-4.17,9.39,9.39,0,0,1,0-2.89l.91,0M253.41,96.09a5.51,5.51,0,0,0-.56,3.63,7.22,7.22,0,0,0,4.5,5c2.28,1,3.43,1.43,4.62,1.43,1.87,0,3.21-1,4-3.11.9-2.37-.83-6-1.38-7.11a19.12,19.12,0,0,1-1-2.2c.11-2-2-4-3.58-5.62q-.37-.36-.66-.66c1.6-1.3,2.85-3.22,2.85-4.87,0-2.32-1.66-4.65-5.37-4.65a11.81,11.81,0,0,0-2.58.31c-4.67,1-4.89,3.47-4.89,8s.48,6.27,3.48,9.19c.24.23.42.42.57.59m-60.8-5.88.31.38-.19-.06a3,3,0,0,0-.12-.32M264.18,24.5c-3,0-3.35.36-3.78,2.1a12.07,12.07,0,0,0-.13,4.36c.25,1.34.17,1.86-.41,1.86a1.89,1.89,0,0,1-.56-.1,22.29,22.29,0,0,0-5.18-1.15c-.62,0-.9.17-.9.49,0,.92-4.18,2.55-6,2.55a1.25,1.25,0,0,1-.68-.14.62.62,0,0,0-.27,0,14.48,14.48,0,0,0-4.62,1.69c-2.09,1.07-3.37,1.61-4.12,1.61s-.95-.49-.95-1.44c0-.55-.67-1.13-1.49-1.29a2.18,2.18,0,0,0-.42-.05c-.72,0-1.08.47-1.08,1.4A6.63,6.63,0,0,1,231.45,40c-1.16,1.1-1.91,2.34-1.66,2.74.14.24-.15.37-.72.37a8.08,8.08,0,0,1-1.45-.17,7.19,7.19,0,0,0-1.47-.19c-.77,0-1.13.25-1.13.74s-.08.63-.28.63a1.81,1.81,0,0,1-.87-.51,2.22,2.22,0,0,0-1.28-.58.51.51,0,0,0-.37.12c-.05.05-.09.08-.13.08s-.14-.49.06-1.24c.32-1.24,1-1.61,3.44-1.61h1.26c2.47,0,2.92-.35,3.14-1.91.31-2.24-2.1-3.53-10.1-5.42a27.29,27.29,0,0,1-6.41-2.23,4.25,4.25,0,0,0-2.47-.69,16.48,16.48,0,0,0-3.3.46c-2.23.49-4.05,1.25-4.05,1.68s-.93.8-2,.8c-2.56,0-8.24,4.62-10.83,8.82a17.58,17.58,0,0,1-5.23,5c-1.79,1-3.3,2.12-3.35,2.45-.58,3.57-.31,6.57.7,7.59a3,3,0,0,0,2,1.16,5.72,5.72,0,0,0,2.84-1.27,3.65,3.65,0,0,1,1.53-.76c.67,0,1,1,1.93,3.8.79,2.41,1.8,4.38,2.25,4.38,1.2,0,3.48-2.5,6.19-6.8,2.18-3.45,2.27-3.89,1-5.27a5.06,5.06,0,0,1-1.33-2.3c0-1.5,6.9-7.66,8.38-7.66a.33.33,0,0,1,.21.07c.52.53,0,1.58-1.33,2.87a6.49,6.49,0,0,0-2.15,4.91c0,2.76,1.2,4.17,3.53,4.17a9.25,9.25,0,0,0,2.55-.42,17,17,0,0,1,4.35-.81c1,0,1.44.28,1.1.84s-1.8.86-3.36.86c-3.31,0-5.26,1.74-3.71,3.32.77.78.58,1-.81,1A2.52,2.52,0,0,0,205.74,61a7.87,7.87,0,0,1-1.56,2.82c-1.38,1.33-6.23,2.48-9.65,2.48a9.86,9.86,0,0,1-2-.18c-2.83-.61-3-.81-2.73-3.89.16-2,.16-2.77-.34-2.77a2.8,2.8,0,0,0-1.08.43c-2.13,1.16-2.58,2.51-1.78,5.4.56,2,.37,2.34-1.63,2.68-4.55.79-4.07.52-10.49,5.87-1.71,1.42-3.73,2.59-4.49,2.59s-1.38.41-1.38.92c0,.35-.33.54-.82.54a2.94,2.94,0,0,1-.82-.14,4,4,0,0,0-1.17-.23c-1.51,0-1.13,1.69,1.14,4.15,3.88,4.21,3.13,5.58-3.06,5.63-2.82,0-5.6.34-6.18.7s-1.05,2.32-1.05,4.34-.36,4.05-.79,4.5a4.07,4.07,0,0,0-.36,3c.31,1.64,1.26,2.46,3.76,3.25a18,18,0,0,0,5.38.93c4.49,0,7.26-2.46,7.59-7,.12-1.78.61-3.29,1.08-3.35a22.93,22.93,0,0,1,2.48-.2,3,3,0,0,1,2,.61,1.1,1.1,0,0,0,.59.27c.33,0,.48-.4.48-1.22,0-1.16.46-1.64,1.63-1.64H181c1,0,1.63-.4,1.53-.94-.18-.95,1.64-1.89,3.33-1.89a3.68,3.68,0,0,1,.82.08c1.49.32,3.31,2.06,3.31,3.16,0,.48.82,1.13,1.82,1.46,2.07.66,6.73,4.64,6.73,5.74,0,.39-1.54.72-3.42.72-4.08,0-4.39,1.18-.81,3.06a5.88,5.88,0,0,0,2.34.9c.7,0,1.25-.48,2.35-1.53a6.7,6.7,0,0,0,2.09-3.51,1.43,1.43,0,0,1,1.29-1.52c2.2,0,1.42-1.4-2.18-3.93C196.94,91,193.4,87,193.4,85.49c0-.09,0-.12.1-.12.22,0,.76.43,1.4,1.13a31.84,31.84,0,0,0,4.71,3.82,17.65,17.65,0,0,1,5,5.62,20.44,20.44,0,0,0,2.77,4.34,3.85,3.85,0,0,1,1,2.58,2.07,2.07,0,0,0,1.5,2,2.87,2.87,0,0,0,.39,0,1,1,0,0,0,1.11-1,1.9,1.9,0,0,1,1.06-1.69c.86-.32.86-.63,0-1.55a3.14,3.14,0,0,1,.16-4.76,3.23,3.23,0,0,1,2-1.18c.68,0,1.08.65,1.08,1.94a5,5,0,0,0,1,3c.57.57.75,1,.4,1s-.2.81.32,1.8a2.36,2.36,0,0,0,1.81,1.4.92.92,0,0,0,.33-.06,1.92,1.92,0,0,1,.66-.12,1.16,1.16,0,0,1,1,.46c.24.4,1.55.69,3,.69h1a6.07,6.07,0,0,1,2.9.45.72.72,0,0,0,.51.14,4,4,0,0,0,1.74-.53,2.76,2.76,0,0,1,1.27-.38c1.23,0,1.89,1.4,1.91,4.11,0,1.28.49,2.51,1.08,2.76s.23.46-.8.5a2,2,0,0,0-2.13,2c-.24,1.69-.82,2-4.55,2.1h-.4a39.68,39.68,0,0,1-9.51-1.52,30.77,30.77,0,0,0-7.78-1.58,3.55,3.55,0,0,0-3.42,1.62,2.72,2.72,0,0,1-2.45,1.27,7.37,7.37,0,0,1-4.64-2.14,15.83,15.83,0,0,0-5.31-2.52c-3.49-.94-3.61-1.08-3.42-4.2l.19-3.22-6.41-.15h-.92a61.41,61.41,0,0,0-10.61.93,42.48,42.48,0,0,1-7.58.87c-.28,0-.54,0-.76,0-.43,0-.81,0-1.15,0-1.81,0-2.4.5-3.29,2.26a12.11,12.11,0,0,1-3.42,3.86c-1.19.8-2.18,2.08-2.18,2.85s-2.33,3.75-5.19,6.64c-7.51,7.6-9.2,11.48-9.76,22.43a89.56,89.56,0,0,1-.9,10.36,3.2,3.2,0,0,0,.9,2.79,16.86,16.86,0,0,1,2.58,4.21c1.59,3.67,3.47,5.85,7.77,9,2.62,1.93,3.62,2.4,7.07,2.4.77,0,1.67,0,2.74-.06a59.17,59.17,0,0,0,9.75-1.09,23.67,23.67,0,0,1,5.61-.85c2.14,0,3.64.55,4.64,1.68a5.91,5.91,0,0,0,3.84,1.73,3.22,3.22,0,0,1,3.29,2.21c1.22,2.71,1.27,5.31.14,6-1.45.91-.93,4.17,1.25,7.81,4.63,7.74,5.63,10.16,6.12,15,.47,4.55.31,5.27-1.72,7.72-2.91,3.51-3,7.8-.12,12a18.8,18.8,0,0,1,2.59,6.32c.62,4,3.17,13.42,3.8,14a4.4,4.4,0,0,1,.75,1.74,30,30,0,0,0,1.37,3.9c.59,1.43,1.44,3.77,1.87,5.2l.8,2.6,14.42-.21,4.56-5c5.42-5.91,8.87-11.22,8.3-12.77-.23-.62.74-1.79,2.19-2.63,2.55-1.46,2.6-1.62,2.17-6.63s-.38-5.18,2.46-7.39c1.6-1.23,3.44-2.24,4.08-2.24a6.69,6.69,0,0,0,3.16-1.87c1.83-1.73,1.94-2.33,1.42-8-.31-3.35-.95-6.35-1.42-6.65-1.61-1-1.69-9.86-.11-12.3A103.92,103.92,0,0,1,255,179.16c5.48-5.94,12.22-19.54,10.29-20.75a1.38,1.38,0,0,0-.64-.11,11.61,11.61,0,0,0-2.94.52,19,19,0,0,1-5.16.85c-3,0-4.8-1.21-4.75-3.48,0-.85.94-1.33,2.66-1.37,3.1-.09,10.15-3.23,12.41-5.52a10.58,10.58,0,0,1,3.59-2.25c2.06-.66,7.85-6.46,7.16-7.17-.21-.21,0-1.14.49-2.06,1.33-2.51.14-6.77-1.89-6.77a2.38,2.38,0,0,1-2.15-1.52c-.26-.83-.64-2-.84-2.71-.09-.31-.24-.47-.46-.47-.39,0-1,.51-2,1.55a6.27,6.27,0,0,1-4.74,2.28c-1.66,0-2.44-.34-2.09-.92s-.24-1.14-1.23-1.4-1.8-1-1.8-1.54a5.35,5.35,0,0,0-1.78-2.71,14.76,14.76,0,0,1-2.6-3.17c-.66-1.26-.44-1.53,1.22-1.53a3.65,3.65,0,0,1,3.16,2.17c.64,1.19,1.62,2.17,2.18,2.17a3.24,3.24,0,0,1,2,1.2,5.81,5.81,0,0,0,4.16,1.68,2.63,2.63,0,0,0,1.85-.57.92.92,0,0,1,.67-.29c.58,0,1.37.49,2.43,1.5,1.92,1.82,3.19,2.16,9.42,2.42s7.39.57,8.48,2.14c.54.79,1,1.28,1.19,1.28s.08,0,.08-.13.05-.17.15-.17a2.43,2.43,0,0,1,1.13.78,4.6,4.6,0,0,1,1.28,1.86c0,1.36,2.32,2.87,4.17,2.87a3.33,3.33,0,0,0,.56,0,5.75,5.75,0,0,1,1-.13c.9,0,1.11.51,1.18,2,.22,5.14.75,7.26,2.58,10.26,1.05,1.73,3.17,5.81,4.71,9.07s3.24,5.91,3.8,5.91,1.91-1.07,3-2.38c1.88-2.22,2.63-6.26,2.16-11.74-.07-.85,1.22-2.75,2.87-4.21a27.12,27.12,0,0,0,4.45-5.17c.8-1.38,1.95-2.51,2.55-2.51s1.1-.36,1.1-.79,1.16-1.06,2.57-1.38,2.56-1.12,2.56-1.8.3-1.18.75-1.18a2.82,2.82,0,0,1,1.81,1.25c.61.75,2.48,1.3,4.38,1.3,3.61,0,4,.53,2.06,3.09a10.1,10.1,0,0,0-1.28,5c0,2.56,0,3.14,1.42,3.14.41,0,.94,0,1.61-.11s1-.08,1.37-.08c1.64,0,2,.62,3,3.27a34.38,34.38,0,0,1,1.62,8.16c.17,2.59.63,4.93,1,5.21,1.29.9,4.47,6.74,4.47,8.2,0,2.87,3.84,8.16,6.32,9.06,0-2.41-.08-4.81-.2-7.2a19.92,19.92,0,0,0-2.58-4.34c-5.14-5.61-7.34-11.87-5.3-15.14.33-.54.59-.8.93-.8s.74.25,1.4.76A44.71,44.71,0,0,1,362.1,158,181,181,0,0,0,272.62,25.78h0a1.09,1.09,0,0,1-1-.46c-.23-.37-2.72-.72-5.54-.79l-1.89,0ZM262,103.19a11,11,0,0,1-3.41-1.17c-2.8-1.24-3.64-3.56-1.92-5.3.58-.59,0-1.7-1.71-3.37-2.22-2.16-2.57-3.13-2.57-7,0-4.33.12-4.56,2.55-5.1a9,9,0,0,1,1.92-.24c1.5,0,2.37.57,2.37,1.65S257,86,255.84,86c-1.62,0-1,1.32,2.07,4.32,1.63,1.61,2.81,3.1,2.62,3.29s.42,1.89,1.38,3.75,1.52,4,1.25,4.69-.56,1.17-1.19,1.17ZM222.1,88.32c.21,0,.35-.13.35-.39,0-.84,4.42-2.57,6.1-2.57a.83.83,0,0,1,.57.14c.3.31,0,.93-.71,1.37-.88.56-.77.84-.19.84a6.75,6.75,0,0,0,2.78-.87,2.4,2.4,0,0,1,1.2-.32c1,0,2.2.56,4.27,1.83,4.95,3.05,5.26,5,1.49,5a22.94,22.94,0,0,1-4.28-.52,23.25,23.25,0,0,0-4.17-.58,4.74,4.74,0,0,0-2.9.93,6.31,6.31,0,0,1-3.45,1.17A3.25,3.25,0,0,1,220,92.45c-.8-1.79,0-4.42,1.15-4.42a.85.85,0,0,1,.46.14.92.92,0,0,0,.45.15Zm28.26,66.07h0c-.08,0-1.86-1.45-4-3.15a25.7,25.7,0,0,1-8.15-13.4,7.2,7.2,0,0,0-1.73-3.37,3.39,3.39,0,0,1-1.23-2,24,24,0,0,0-2.14-5.24c-1.17-2.35-2-4.4-1.82-4.57a.73.73,0,0,1,.55-.23c1.17,0,3.15,2.21,4.77,5.47,1.21,2.45,2.76,4.78,3.45,5.17a2,2,0,0,1,.78,2.22c-.3,1,.46,2.41,2.13,4,2.94,2.86,4.73,6.09,6.37,11.46a32.13,32.13,0,0,1,1,3.62Z" style="fill:#999"/><path d="M151.84,7.71c.35.89,1.22,1.92,3.4,1.94l-.56.46c-2,1.75-3.45,3-3.38,5.06a3.5,3.5,0,0,0,.35,1.43,4,4,0,0,0-.34.43,3.68,3.68,0,0,0-.64,2.29,4.37,4.37,0,0,0-.77,3.14c-.22.12-.53.3-1,.51-1.88.91-3.76,2-4.11,4a3.47,3.47,0,0,0,.15,1.78,12.33,12.33,0,0,0-1.87,2c-.58.75-1.71,1.32-5.77,2.06-4.42.8-6.93,1.5-7.93,2.91a24.23,24.23,0,0,1-4.81,2l-.38,0c-.56,0-2,0-5.73,2.78-2.49,1.86-3.5,3.15-3.89,4.16a9.24,9.24,0,0,0-4.17,4c-.27.53-.31.55-.9.55h-.11a4.09,4.09,0,0,0-2.14-1.53,14.37,14.37,0,0,1-1.58-5.86c.11-1,.28-2.48.37-3.34a1.17,1.17,0,0,1,.17-.28,4.16,4.16,0,0,0,2-2.47,5.16,5.16,0,0,0,2.85-2.82,4.59,4.59,0,0,0,.29-2.31,3,3,0,0,0-.59-5.15c.3-1.26.6-2.84.77-4.16.06-.46.12-.93.15-1.41A177.1,177.1,0,0,1,151.84,7.71m2.57-3.47a179.49,179.49,0,0,0-46,13.75c.37.48.33,1.28.12,2.86a35.93,35.93,0,0,1-1,5.09c-.49,1.53-.29,2,1,2,1.43.09,1.44.14.1.5-1.57.41-2.1,2-.67,2,.46,0,.61.59.34,1.3a2.33,2.33,0,0,1-2.06,1.3,2.69,2.69,0,0,0-2.09.86c-.3.48,0,.88.58.89.81,0,.77.24-.16.83A3.67,3.67,0,0,0,103.08,38c-.09.85-.27,2.38-.38,3.39-.33,2.73,1.94,9,3.25,9,.63,0,1.14.39,1.14.86s1.09.87,2.42.87A3.6,3.6,0,0,0,113.07,50a6,6,0,0,1,2.71-2.66c.86-.28,1.57-1,1.57-1.53,0-1.1,5.48-5.17,6.85-5.17l.14,0a.62.62,0,0,0,.21,0c1.47,0,7.33-2.53,7.33-3.23,0-.35,2.69-1.12,6-1.72,4.51-.82,6.37-1.59,7.6-3.17.89-1.15,2-2.09,2.56-2.09,1.21,0,1.21-1.12,0-2.34-.68-.7-.09-1.37,2.2-2.47s3.05-1.94,2.74-3.12c-.23-.88,0-1.61.45-1.61s.64-.58.37-1.3c-.33-.88.05-1.3,1.2-1.3,2.07,0,2.14-.76.18-2.24-1.38-1-1.26-1.33,1.5-3.74a9.28,9.28,0,0,1,5.71-2.65c3.21,0,4.19-1.14,2.38-2.66-.6-.51-1.79-.76-3.56-.76-.77,0-1.64,0-2.63.14-1.44.14-2.6.21-3.28.21s-.82-.06-.55-.16c1.5-.58,1.33-1.42-.32-2.25Z" style="fill:#999"/><path d="M319.34,161.39c-1.42,0-1.84,4.27-.74,7.59a1.58,1.58,0,0,0,1.63,1.07,3.06,3.06,0,0,0,3.06-2.71c0-2.23-2.47-6-4-6Z" style="fill:#999"/><path d="M186.05,94.64c-1.22,0-1.66,2.7-.62,3.76a1.57,1.57,0,0,0,1.08.55c.48,0,.9-.36,1.14-1.06.56-1.61-.25-3.25-1.6-3.25Z" style="fill:#999"/><path d="M356.91,180.25a29.55,29.55,0,0,1,3.61,4,3.64,3.64,0,0,0,.27.83c0,.91,0,1.83-.06,2.74a1,1,0,0,1-.08-.22,17,17,0,0,0-2.64-5.35,10.47,10.47,0,0,1-1-1.55c0-.12-.06-.26-.1-.41m-7.05-9.32c-2.38,0-2.3.38,1.2,5.32a24.05,24.05,0,0,1,3,5,8.13,8.13,0,0,0,1.58,2.82,14,14,0,0,1,2.1,4.24c.29,1.19,2,3.8,3.76,5.8.76.85,1.35,1.52,1.84,2q.42-5.84.46-11.77a2.09,2.09,0,0,1-.34-.84c0-1.77-11.68-12.57-13.59-12.57Z" style="fill:#999"/><path d="M93.87,320.34a8.56,8.56,0,0,0-2.72,1c-2.94,1.49-5,4.89-4.26,6.94.24.62.22,1,0,1a.59.59,0,0,1-.29-.11,1.19,1.19,0,0,0-.56-.22c-.58,0-.17,1.31,1.07,3.11s1.14,4.14.09,4.14a1.49,1.49,0,0,1-.89-.41,2.16,2.16,0,0,0-.93-.47,180,180,0,0,0,31.34,16,14.06,14.06,0,0,0-2.59-4.23c-2.27-2.83-4.91-4.76-9.31-6.82a42.53,42.53,0,0,0-7.17-2.89c-1.59,0-5.35-4.46-6.48-7.69-1-2.93-.74-5.31.63-5.31.84,0,2.81-3.44,2.28-4a.29.29,0,0,0-.19-.05Z" style="fill:#999"/><path d="M82.38,333.06a1,1,0,0,0-.32.05c.8.54,1.61,1.07,2.42,1.59.15-.55-.18-1.07-.86-1.34a3.55,3.55,0,0,0-1.24-.3Z" style="fill:#999"/><path d="M246.42,328.24a9.2,9.2,0,0,1,3.22,1.11c.57,1.26,2.15,2.35,5.92,2.36s5.87.75,6.64,1.23c.25,3.4,2.58,3.68,3.32,3.68a4.42,4.42,0,0,0,2.85-1.27,11.51,11.51,0,0,1,3.63-.68c1.19-.05,2.8-.21,4.47-.43a178.42,178.42,0,0,1-139,20.72l2.49-2.81c2-2.24,2.75-2.24,3.11-2.24,3.89,0,5.36-2.14,5.46-4.06.45-.88,3.32-3.3,7.44-4.47,3.36-1,5.18-1.81,6.14-2.72l.47,0a8,8,0,0,0,4.87-1.47,6.67,6.67,0,0,0,1.37.15,3.56,3.56,0,0,0,3.23-1.68,6,6,0,0,1,.76-.42l.16-.07a9.67,9.67,0,0,0,5.94,1.82h.4c1.54-.06,2.62-.09,3.46-.09a33.09,33.09,0,0,1,5.28.52,22.81,22.81,0,0,0,3,.28,4.25,4.25,0,0,0,3.71-1.58,91.64,91.64,0,0,1,12.07-.59,78.5,78.5,0,0,1,11.41.58,5.34,5.34,0,0,0,4.07,1.66,5.84,5.84,0,0,0,4.74-2.2,35.51,35.51,0,0,1,10.9-3.18,11.85,11.85,0,0,0,6.75-3,4.91,4.91,0,0,1,1.68-1.08m-.12-3a6.63,6.63,0,0,0-3.67,1.95,8.89,8.89,0,0,1-4.87,2.18c-4.25.33-12.2,2.94-13,4.26a2.8,2.8,0,0,1-2.41,1.11,2.11,2.11,0,0,1-2.07-1.05c-.3-.8-6.79-1.19-13.41-1.19-7.08,0-14.33.44-14.33,1.3,0,.6-.36.87-1.45.87a20.3,20.3,0,0,1-2.6-.25,35.8,35.8,0,0,0-5.71-.55c-.9,0-2,0-3.57.09h-.29a6.57,6.57,0,0,1-4.06-1.16,2.13,2.13,0,0,0-1.58-.82,4.3,4.3,0,0,0-1.73.51c-1.14.54-2.07,1.23-2.07,1.54s-.26.28-.65.28a3.71,3.71,0,0,1-1-.14,2.94,2.94,0,0,0-.71-.09,1.76,1.76,0,0,0-1.48.61c-.31.52-1.7.94-3.08.94s-2.52.33-2.52.72-2.21,1.36-4.91,2.13c-5,1.43-9.61,4.86-9.61,7.15,0,.82-.88,1.27-2.47,1.27-1.76,0-3.28.92-5.35,3.25l-2.89,3.25-7.25-.29c-4-.16-7.71-.68-8.28-1.16a1.94,1.94,0,0,0-1.24-.42,2.1,2.1,0,0,0-.56.08,181.14,181.14,0,0,0,171.14-21.93,57.05,57.05,0,0,0-8.09.84,64.8,64.8,0,0,1-8.68,1.14c-2.18.08-4.59.67-5.34,1.3-.5.42-.82.65-1,.65s-.34-.41-.34-1.3c0-2.05-4.15-3.6-9.62-3.61-1.76,0-3.2-.33-3.2-.73,0-1-3.91-2.74-6.06-2.74Z" style="fill:#999"/><path d="M254.67,16.93a14.54,14.54,0,0,0-2.09.17c-6.65,1-9.36,2.64-10,6.18A17,17,0,0,1,241,28c-.81,1.33-.75,1.82.27,2.48a10.87,10.87,0,0,0,4.7.83c1.62,0,3-.24,3-.71s-1.22-1.78-2.73-3-2.19-2.29-1.48-2.29A3.35,3.35,0,0,0,247,23.64c.55-.91,2.95-2.3,5.33-3.1,3-1,4.46-2.09,4.48-2.8-.61-.28-1.23-.54-1.84-.81Z" style="fill:#999"/><path d="M147.9,40.83a10.08,10.08,0,0,1,2.22.47,19.32,19.32,0,0,1,2.68,1,5.71,5.71,0,0,1-1.88.87,14.6,14.6,0,0,1-3.52.71,3,3,0,0,1-1.64-.54,5.19,5.19,0,0,1-1-.76,5.66,5.66,0,0,1,1.37-1c1.2-.68,1.52-.74,1.81-.74m0-3A6.44,6.44,0,0,0,144.62,39c-3.94,2.23-4.07,4.84-.35,7a5.9,5.9,0,0,0,3.13.94,16.65,16.65,0,0,0,4.33-.82c3.73-1,5.74-3.89,3.94-5.55A15.61,15.61,0,0,0,151,38.42a11.55,11.55,0,0,0-3-.59Z" style="fill:#999"/><path d="M169.88,67c.41.54.88,1.1,1.41,1.69a10,10,0,0,1,1,1.33,6.14,6.14,0,0,1-3.1,1.29l-1.37.23a7.48,7.48,0,0,0,.33-1.36,3.64,3.64,0,0,0,1.45-1.69,4.17,4.17,0,0,0,.3-1.49m-3.5-11.38c-2.24,0-2.82,6.88-.75,9,1.46,1.49,1.69,3.16.43,3.16-.47,0-.86.7-.86,1.56A6.61,6.61,0,0,1,164,72.59a6.92,6.92,0,0,0-1.28,2.34c0,.25.35.38.91.38a4.52,4.52,0,0,0,1-.11c1.06-.22,3.35-.63,5.1-.92,3.31-.54,5.79-2.37,5.79-4.28a7.57,7.57,0,0,0-1.92-3.29c-2.71-3.06-4.2-5.82-3.63-6.74s-2.14-4.34-3.52-4.34Z" style="fill:#999"/><path d="M160.66,67.8a5.84,5.84,0,0,1-.18.6l-.28.1a4,4,0,0,1,.46-.7m2.08-4.37c-2.79,0-5.82,3.18-5.9,6.21-.05,1.78,0,2.36.94,2.36a10,10,0,0,0,1.68-.25c3.41-.69,3.77-1.1,4.49-5.07.53-2.91.4-3.25-1.21-3.25Z" style="fill:#999"/><g id="b243365b-dbeb-4797-a62c-ae6111fbb618" data-name="Ellipse 1"><path d="M183,8A175,175,0,0,1,306.74,306.74,175,175,0,1,1,59.26,59.26,173.82,173.82,0,0,1,183,8m0-8A183,183,0,1,0,366,183,183,183,0,0,0,183,0Z" style="fill:#222"/></g></g></g></svg>