<?xml version="1.0" encoding="utf-8"?>
<!-- Generator: Adobe Illustrator 24.2.3, SVG Export Plug-In . SVG Version: 6.00 Build 0)  -->
<svg version="1.1" id="Layer_1" xmlns="http://www.w3.org/2000/svg" xmlns:xlink="http://www.w3.org/1999/xlink" x="0px" y="0px"
	 viewBox="0 0 366 366" style="enable-background:new 0 0 366 366;" xml:space="preserve">
<style type="text/css">
	.st0{clip-path:url(#SVGID_2_);}
	.st1{fill:url(#SVGID_3_);}
	.st2{fill:url(#SVGID_4_);}
	.st3{fill:#FFFFFF;}
	.st4{fill:url(#SVGID_5_);stroke:#000000;stroke-width:2;stroke-miterlimit:10;}
	.st5{opacity:0.4;fill:url(#SVGID_6_);enable-background:new    ;}
	.st6{opacity:0.4;fill:url(#SVGID_7_);enable-background:new    ;}
	.st7{opacity:0.2;}
	.st8{fill:#FFE0C9;stroke:#000000;stroke-width:2;stroke-miterlimit:10;}
	.st9{opacity:0.3;enable-background:new    ;}
	.st10{opacity:0.1;enable-background:new    ;}
	.st11{fill:url(#SVGID_8_);}
	.st12{fill:#ED1C24;stroke:#000000;stroke-miterlimit:10;}
	
		.st13{opacity:0.99;fill:url(#adb28359-8b7f-4279-a784-cfcb8dce714e_1_);stroke:#000000;stroke-width:2;stroke-miterlimit:10;enable-background:new    ;}
	.st14{opacity:0.8;fill:#F2F2F2;enable-background:new    ;}
	.st15{fill:url(#SVGID_9_);}
	.st16{fill:url(#SVGID_10_);}
	.st17{fill:#1B1464;stroke:#000000;stroke-miterlimit:10;}
	.st18{fill:url(#SVGID_11_);}
	.st19{fill:#FF1D25;}
	.st20{fill:url(#SVGID_12_);}
	.st21{fill:url(#SVGID_13_);}
	.st22{fill:url(#SVGID_14_);}
	.st23{fill:#1B1464;}
	.st24{opacity:0.3;}
	.st25{opacity:0.35;fill:#FFFFFF;enable-background:new    ;}
</style>
<g>
	<defs>
		<rect id="SVGID_1_" width="366" height="366"/>
	</defs>
	<clipPath id="SVGID_2_">
		<use xlink:href="#SVGID_1_"  style="overflow:visible;"/>
	</clipPath>
	<g class="st0">
		
			<radialGradient id="SVGID_3_" cx="181.5" cy="180.5771" r="184.5" gradientTransform="matrix(0.9919 0 0 -1 2.9756 365.2766)" gradientUnits="userSpaceOnUse">
			<stop  offset="0" style="stop-color:#93278F"/>
			<stop  offset="0.32" style="stop-color:#91278E"/>
			<stop  offset="0.49" style="stop-color:#89258B"/>
			<stop  offset="0.63" style="stop-color:#7B2387"/>
			<stop  offset="0.74" style="stop-color:#682080"/>
			<stop  offset="0.85" style="stop-color:#4F1C77"/>
			<stop  offset="0.94" style="stop-color:#31186C"/>
			<stop  offset="1" style="stop-color:#1B1464"/>
		</radialGradient>
		<rect y="0.2" class="st1" width="366" height="369"/>
		
			<linearGradient id="SVGID_4_" gradientUnits="userSpaceOnUse" x1="191.9484" y1="-83.8486" x2="188.481" y2="240.1368" gradientTransform="matrix(1 0 0 -1 -0.77 365.1466)">
			<stop  offset="0" style="stop-color:#FCEE21"/>
			<stop  offset="0.12" style="stop-color:#F7D428"/>
			<stop  offset="0.29" style="stop-color:#EFA933"/>
			<stop  offset="0.35" style="stop-color:#E77D3F"/>
			<stop  offset="0.48" style="stop-color:#D4145A"/>
			<stop  offset="0.6" style="stop-color:#C1272D"/>
			<stop  offset="0.75" style="stop-color:#000000"/>
		</linearGradient>
		<path class="st2" d="M134.9,329.9c1.3,6.1,4.1,24.7,6.3,39.9H190l59.7-81.1c-5.1,1-8.7,1.6-8.7,1.2c0-51.3-6.4-80.4-6.4-80.4
			l-29.2,37.7c0,0-57.4,31.8-76.1,48.7l14.6-0.1C143.9,295.8,132.5,318.9,134.9,329.9z"/>
		<polygon class="st3" points="318.4,338.5 271.8,363.9 287.3,365.5 321.2,365.5 		"/>
		<polygon points="345.3,369.3 337.4,333.4 313.5,335.7 310.8,354.9 315.4,369.3 		"/>
		<path d="M163,271.7c4.3,5,6.8,11.2,7.4,17.8c1,9.1,2.1,27.3,2.1,27.3s3.1-20.4,1.3-31.3c-1.3-7.7-2.7-17.6-2.7-17.6L163,271.7z"/>
		
			<linearGradient id="SVGID_5_" gradientUnits="userSpaceOnUse" x1="166.4293" y1="23.496" x2="143.5844" y2="61.9287" gradientTransform="matrix(1 0 0 -1 -0.77 365.1466)">
			<stop  offset="0" style="stop-color:#FFFFFF"/>
			<stop  offset="0.74" style="stop-color:#D67276"/>
			<stop  offset="1" style="stop-color:#C1272D"/>
		</linearGradient>
		<path class="st4" d="M130.2,331c0.8,7.1,2.6,26,5.4,38h11.9c-2.1-14.8-5.6-47.7,2.7-58.8l20.7-30.3l-1.9-10.7
			c0,0-35.8,21-41.8,28.2c-9.4,11.4-4.8,15.6-4.8,15.6C126.5,318.2,129.2,324.4,130.2,331z"/>
		<path class="st3" d="M184,368.7c1.5-4.2,3-8.6,4.1-12.6c1.9-6.6,3.1-12.8,4.3-18.7c1.2-6.9,2.9-13.7,5.1-20.4
			c5.2-14.7,10.9-24.9,18.4-32.9c8.6-9.1,47.3-33.9,56.8-33.9c0.7,0,0.9,0.2,0.9,0.2l0,0c0,0.1,0,0.2,0,0.3c0,9.4-5.1,29.5-5.6,31.6
			c-16.9,32.1-43.7,79.8-51.5,86.4L184,368.7z"/>
		<path d="M272.1,251.8c-0.4,9.4-4.8,27.2-5.5,29.9c-20.2,38.1-43.6,78.8-50.6,85.4h-29.7c1.3-3.6,2.4-7.2,3.4-10.6
			c1.9-6.7,3.1-12.9,4.3-18.8c1.2-6.8,2.9-13.5,5-20.1c5.2-14.5,10.7-24.5,18.2-32.4C225.1,276.7,262.2,252.9,272.1,251.8
			 M272.7,248.8c-10.3,0-49.4,25.4-57.8,34.4c-9,9.5-14.5,21.3-18.8,33.4c-4.3,12.2-5.2,24.5-9.4,39.2c-1.5,5.2-3.2,10.3-4.8,14.5
			h34.3v0.5c8.8-3.9,53.3-87.9,53.3-87.9s5.7-21.9,5.7-32.1C275.1,249.4,274.2,248.8,272.7,248.8L272.7,248.8z"/>
		<path class="st3" d="M217.4,368.9c-0.5-6.1-0.1-12.2,1-18.2c3.1-15.8,8.9-23,16.9-33c18.4-22.8,33.4-35.3,42.4-35.4h0.5
			c8.8,0,12.5,2.8,12.6,2.8l8.1,7.5c-6.1,5.3-32.1,28.1-35.6,31.2c-2.6,2.4-21.2,25.6-36.5,44.9H217.4z"/>
		<path d="M278.1,283.9c7.5,0,11.1,2.1,11.6,2.4l6.8,6.4c-7.9,6.9-31,27.2-34.3,30.1c-2.2,2-14.4,16.9-36.3,44.5h-7
			c-0.3-5.5,0-11,1-16.3c3-15.4,8.4-22.1,16.6-32.3l0.1-0.1c25.2-31.2,37.2-34.7,41.1-34.7L278.1,283.9 M278.1,280.8h-0.4
			c-14.3,0.1-37,27.9-43.5,35.9c-8.2,10.2-14.2,17.5-17.3,33.8c-1.2,6.6-1.5,13.3-0.9,19.9h11.3c12.7-16,34.1-42.9,36.8-45.3
			c3.9-3.5,36.8-32.3,36.8-32.3l-9.4-8.8C291.6,283.9,287.6,280.8,278.1,280.8L278.1,280.8z"/>
		<path class="st3" d="M230.9,368.9c1.6-4.5,3.6-8.9,6.1-13c4.9-8.2,13.3-17.7,20.6-26.1c2.9-3.3,5.7-6.5,8.2-9.5
			c9.2-11,30.7-26.4,34.5-27.6c1.8-0.6,3.7-1,5.7-1c3.8,0,8,1.5,13.2,4.9c5.4,3.4,8.9,9,9.5,15.3c-5.2,3.4-36.5,23.8-46.4,31.2
			c-3.9,2.9-12.7,11.6-26.1,25.7L230.9,368.9z"/>
		<path d="M306,293.3c3.4,0,7.5,1.5,12.4,4.6c4.7,2.9,7.9,7.8,8.7,13.3c-7.1,4.6-36.1,23.6-45.7,30.7c-3.9,2.9-12.6,11.5-25.8,25.4
			h-22.5c1.4-3.7,3.2-7.3,5.2-10.6c4.8-8.1,13.1-17.6,20.5-25.9c2.9-3.3,5.7-6.5,8.2-9.5c8.8-10.6,30.2-26,33.8-27.1
			C302.5,293.6,304.2,293.2,306,293.3 M306,290.1c-2.1,0-4.2,0.4-6.1,1.1c-4.5,1.4-26.2,17.3-35.3,28.1c-9.1,10.8-22,24.4-28.9,35.9
			c-3,4.8-5.3,9.9-6.9,15.3h28c11-11.6,21.8-22.6,26.3-26c10.7-8,47-31.6,47-31.6c-0.3-7.2-4.1-13.7-10.2-17.5
			c-6.1-4-10.6-5.1-14-5.1L306,290.1z"/>
		<path class="st3" d="M260.8,368.8c4.2-8.4,9.4-16.4,15.4-23.6c12.9-14.7,45.9-31.2,51.1-33.8c6.2,3.2,20.7,11.8,22.9,18.5
			c2,6.3-4,20.6-7.6,27.6c-0.9-1.4-2-3.5-3.7-6.4c-3.4-5.9-6.4-8.5-10.1-8.5s-7.5,2.7-13.2,6.8c-3.3,2.4-7.1,5.1-11.8,8l-13.1,8
			l-5.3,3.2L260.8,368.8z"/>
		<path d="M327.3,313.2c7.9,4.1,19.7,11.8,21.5,17.3c1.5,4.8-2.4,15.8-6.2,24c-0.6-1.1-1.4-2.4-2.3-3.9c-2.6-4.6-6.1-9.2-11.4-9.2
			c-4.3,0-8.4,3.1-14.1,7.1c-3.3,2.4-7,5.1-11.7,7.9l-13.1,8l-4.9,3.1h-21.7c3.9-7.5,8.6-14.6,14-21.1
			c12.3-13.9,43.1-29.7,49.9-33.1 M327.3,309.8c0,0-37.9,18.1-52.3,34.4c-6.6,8-12.2,16.8-16.7,26.2h27.6
			c6.3-3.8,12.7-7.8,18.7-11.5c12.5-7.7,18.9-14.6,24.1-14.6c3,0,5.6,2.2,8.8,7.7c4.6,8,5.9,10,6,10c-0.2-0.5-0.4-1-0.7-1.5
			c0,0,11.7-21.7,8.8-30.9c-2.9-9.2-24.3-19.8-24.3-19.8L327.3,309.8z"/>
		<path class="st3" d="M132.9,368.9l-7.2-13l-23-28.5c-0.5-1-4.6-8.8,2.5-14.4c2.4-1.9,5.3-2.9,8.3-2.9c2.8,0,5.6,0.8,8.1,2.1
			c0.7,0.7,5.2,5.4,9.2,15.3c3.3,8.3,4,28.9,4.1,41.4L132.9,368.9z"/>
		<path d="M113.6,311.7c2.5,0,5,0.7,7.2,1.8c3.8,4.3,6.7,9.2,8.7,14.6c2.3,5.8,3.7,19.7,4,38.5l-6.3-11.3L127,355l-0.2-0.2
			L104,326.5c-0.7-1.3-3.7-7.7,2.2-12.3C108.3,312.6,110.9,311.7,113.6,311.7 M113.6,308.6c-3.3,0-6.6,1.1-9.2,3.2
			c-8.7,6.8-2.9,16.5-2.9,16.5l23,28.5l7.7,13.8h4.4c0-12.1-0.7-34.5-4.2-43.5c-4.5-11.3-9.7-15.9-9.7-15.9c-2.8-1.6-5.9-2.4-9-2.4
			L113.6,308.6z"/>
		<path class="st3" d="M117,368.9c-3.8-2.4-7.2-5.1-10.4-8.3c-5.7-5.9-16.7-15.3-18.8-17.1c-1.4-4.6-3.7-15.9,1-18.7
			c1.8-1.1,3.8-1.7,5.9-1.8c1.5,0,3.1,0.4,4.4,1.2c8.3,5.5,15.4,12.7,20.9,21c4.4,7.5,8,15.4,10.7,23.6H117z"/>
		<path d="M94.9,324.6c1.2,0,2.4,0.3,3.5,0.9l0.1,0.1h0.1c8,5.4,14.9,12.4,20.2,20.5c4,6.7,7.4,13.9,10,21.3h-11.1
			c-3.5-2.2-6.8-4.9-9.7-7.8c-5.5-5.7-15.8-14.5-18.6-16.9c-1.7-5.8-2.7-14.6,0.5-16.5C91.2,325.2,93,324.7,94.9,324.6 M94.8,321.6
			c-2.4,0-4.7,0.7-6.7,2c-7.1,4.2-1.5,20.9-1.5,20.9s12.8,10.7,19.1,17.2c3.3,3.3,7,6.3,11,8.8h16.4c-3.1-8.6-7.3-19-11.8-26
			c-5.5-8.5-12.7-15.8-21.2-21.5c-1.6-1-3.4-1.6-5.3-1.5L94.8,321.6z"/>
		<path class="st3" d="M76.2,369c-2-3.5-3.2-7.4-3.5-11.4c-0.8-4.1,0.4-8.4,3.1-11.6c1.7-2.1,4.2-3.5,6.9-3.8h1.5
			c3.3,0,7.2,0.9,19.3,12.1c4.4,4.2,8,9.2,10.4,14.8L76.2,369z"/>
		<path d="M84.2,343.7c2.2,0,5.6,0,18.3,11.7c3.7,3.5,6.8,7.6,9,12.1H77.1c-1.6-3.2-2.5-6.6-2.9-10.1c-0.7-3.7,0.3-7.5,2.8-10.4
			c1.4-1.8,3.4-3,5.6-3.4H84.2 M84.2,340.6h-1.5c-4.2,0-13.1,5.7-11.5,17.2c0.9,6.3,2.5,10.3,4.2,12.7h40.9
			c-2.6-6.6-6.6-12.6-11.7-17.4C91.9,341.4,87.7,340.6,84.2,340.6L84.2,340.6z"/>
		
			<linearGradient id="SVGID_6_" gradientUnits="userSpaceOnUse" x1="195.3451" y1="124.5216" x2="221.6573" y2="67.9695" gradientTransform="matrix(1 0 0 -1 -0.77 365.1466)">
			<stop  offset="0" style="stop-color:#000000"/>
			<stop  offset="1" style="stop-color:#000000;stop-opacity:0"/>
		</linearGradient>
		<path class="st5" d="M169.1,271.6l-0.8-6.5l59.5-39.4c0,0-34.3,40.7-45.3,50S169.1,271.6,169.1,271.6z"/>
		
			<linearGradient id="SVGID_7_" gradientUnits="userSpaceOnUse" x1="140.3654" y1="85.7783" x2="222.8768" y2="-91.5951" gradientTransform="matrix(1 0 0 -1 -0.77 365.1466)">
			<stop  offset="0" style="stop-color:#000000"/>
			<stop  offset="1" style="stop-color:#000000;stop-opacity:0"/>
		</linearGradient>
		<path class="st6" d="M146.4,368.2h5.1c1-9.9,3.1-26.8,7.2-39.7c4.2-13.2,13.2-20.1,13.6-21.9c2.9-15.7-3.7-39.2-3.7-39.2
			l-20.6,14.9c0,0-9.7,10.4-9.7,24c0,23,3.7,36.8,3.7,36.8L146.4,368.2z"/>
		<g class="st7">
			<path d="M290.7,332.3c-1,1.5-16.4,24.5-21.9,36.5h-15C267.4,356.7,289.3,333.8,290.7,332.3z"/>
			<path d="M133.3,357.6l1.5,10.6h-1.1c-1.2-2-2.8-5-4.6-8.1l2.6,8.1h-3.3c-0.4-2.9-1.2-8.1-1.8-12.4c-1.9-3.3-4-6.5-6.2-9.5
				c-3.9-4.7-19.6-21.5-19.6-21.5s-2.7-4.3,2-9.8c4.7-5.5,6.7-4.3,6.7-4.3s-3.5,9.8,2.7,17.2C118.4,335.4,133.3,357.6,133.3,357.6z"
				/>
			<path d="M124.8,368.2h-11c0,0,2.7-2-7.8-11c-6.6-5.6-13.5-10.7-20.8-15.3l1.5-12.5l3.1-5.5c0,0-2.7,9.8,5.5,16.1
				C105.9,348.1,118.2,362.6,124.8,368.2z"/>
			<path d="M273.1,313.4c-0.6,1.2-21.5,39.1-28.1,55.4h-28.9c0-0.6,0-1.2-0.1-1.8l-4.7,1.8h-26.6c1.6-5.3,3.5-11.8,5-18.6
				c3.5-16.1,11.1-46.5,19.3-59c7.9-12.1,40.1-25.4,42.1-26.3c-2.1,1.4-36.3,24.2-46.9,81.8c-1.9,10.4,6.6,15.5,11.8,17.6
				c-0.2-7.4,1.1-14.7,3.9-21.5c9-20.7,38.4-49.1,40.6-51.2c-1.8,2.2-21.3,25.7-27.6,49.2c-2.2,9.1-3.7,18.3-4.4,27.6
				C235.1,352.2,272.2,314.4,273.1,313.4z"/>
			<path d="M97.1,368.2H75.6c-1.6-3.8-2.8-7.7-3.7-11.8l4.2-7.9c-0.9,2.3-1,4.8-0.3,7.1C77.3,360.3,88.7,364.9,97.1,368.2z"/>
			<polygon points="310.4,355.2 295.2,368.8 285.9,368.8 294.4,364 			"/>
		</g>
		<g id="bb9bcf59-60b7-4a89-b0c4-547e1a4d5942">
			<path id="ef1a4efc-f578-483d-a803-db0a2fc2ca40" class="st8" d="M85.6,164.2c0,0,10.7,29.2,12.3,33.8s1.5,15.3,4.6,32.2
				s33.8,43,38.4,46s36.7-6,70.6-35.3c56.8-49.1,26.1-116.6,26.1-116.6s-58.3-46-107.4-35.3S85.6,164.2,85.6,164.2z"/>
			<path id="a4d9a80b-f705-4adb-8c94-50960fa21cce" class="st9" d="M147.2,268.7c-3.1,0.4-37.2-20.4-38.6-52.2
				c0-1.3,16.6,3.9,16.6,3.9l-15.1-11.1c0,0,9.1-11.9,10.6-17.5c1.8-6.9-1.8-11.5-4.6-18.8c-1.4-3.5-10.6-15.9-10.8-28.8
				c-0.4-19.1,9-40.9,9-49.5c-31.9,19.6-28.4,68.8-28.4,68.8s10.5,28.2,12,32.8c2.2,6.5,2.9,17.4,5,35.6
				c1.5,13.3,33.5,41.1,39.9,44.1c5,2.3,41.1-8.6,67.8-36.4c0.7-0.8,19.6-19.7,20.3-20.4c-11,8.6-28.5,22.4-46,33.4
				C170,262.2,157.6,267.5,147.2,268.7z"/>
		</g>
		<g id="b5b77670-5b2a-4894-9332-02f5d557f016">
			<path class="st10" d="M143.3,152c-3.6,4.7-5.8,10.4-6.5,16.3c-1,11.2,2.9,17.3,2.9,17.3l10.2-15.3l39-13.3l8.8-9.9
				c0,0-22.3-5.5-36.4-2.3C147.2,147.8,143.3,152,143.3,152z"/>
			
				<linearGradient id="SVGID_8_" gradientUnits="userSpaceOnUse" x1="143.6465" y1="179.072" x2="185.5466" y2="199.2319" gradientTransform="matrix(1 0 0 -1 -0.77 365.1466)">
				<stop  offset="0" style="stop-color:#FFFFFF;stop-opacity:0"/>
				<stop  offset="3.000000e-02" style="stop-color:#FFFFFF;stop-opacity:0.14"/>
				<stop  offset="6.000000e-02" style="stop-color:#FFFFFF;stop-opacity:0.32"/>
				<stop  offset="0.11" style="stop-color:#FFFFFF;stop-opacity:0.48"/>
				<stop  offset="0.15" style="stop-color:#FFFFFF;stop-opacity:0.62"/>
				<stop  offset="0.2" style="stop-color:#FFFFFF;stop-opacity:0.74"/>
				<stop  offset="0.25" style="stop-color:#FFFFFF;stop-opacity:0.84"/>
				<stop  offset="0.31" style="stop-color:#FFFFFF;stop-opacity:0.91"/>
				<stop  offset="0.38" style="stop-color:#FFFFFF;stop-opacity:0.96"/>
				<stop  offset="0.47" style="stop-color:#FFFFFF;stop-opacity:0.99"/>
				<stop  offset="0.65" style="stop-color:#FFFFFF"/>
			</linearGradient>
			<path class="st11" d="M140.8,183.6l4.8-13.1c0,0,26.1-6.1,33.8-10.7l7.7-4.6c0,0-0.7,17.9-3.1,21.5c-3.1,4.6-6.1,7.7-12.3,9.2
				c-6.1,1.5-8.4,2.3-14.5,2.3c-3.5,0-7-0.5-10.4-1.4C144.6,186.2,142.6,185.1,140.8,183.6z"/>
			<path id="b7b1f84a-097c-4b5a-8917-cc7ccb09d2ff" class="st12" d="M180.4,174.7c0,5.1-7.1,9.7-12.9,11c-5.5,1.2-8.6-5.8-8.6-10.9
				s5-9.2,10.6-9.2S180.4,169.6,180.4,174.7z"/>
			
				<linearGradient id="adb28359-8b7f-4279-a784-cfcb8dce714e_1_" gradientUnits="userSpaceOnUse" x1="168.0637" y1="192.5063" x2="183.0839" y2="178.9129" gradientTransform="matrix(1 0 0 -1 -0.77 365.1466)">
				<stop  offset="0" style="stop-color:#000000"/>
				<stop  offset="0.13" style="stop-color:#000000;stop-opacity:0.66"/>
				<stop  offset="1" style="stop-color:#000000;stop-opacity:0"/>
			</linearGradient>
			<path id="adb28359-8b7f-4279-a784-cfcb8dce714e" class="st13" d="M181.9,174.7c0,5.1-7.1,9.7-12.9,11c-5.5,1.2-8.6-5.8-8.6-10.9
				s5-9.2,10.6-9.2S181.9,169.7,181.9,174.7z"/>
			<path d="M172.7,179.5c-2.9,1-6.1-0.5-7.2-3.5c-1.2-3.1-0.8-7.4,1.9-8.5c2.7-1.1,6.7,1.4,7.9,4.4
				C176.7,174.8,175.5,178.2,172.7,179.5z"/>
			<path class="st14" d="M175.8,171.8c-1.3,1.1-3.2,1.2-4.6,0.3c-1.1-0.8-0.5-2.6,0.3-3.7s2.8-0.6,3.9,0.3c1,0.7,1.2,2,0.5,3
				C175.9,171.7,175.9,171.8,175.8,171.8z"/>
			
				<linearGradient id="SVGID_9_" gradientUnits="userSpaceOnUse" x1="165.7865" y1="183.1689" x2="169.0358" y2="188.794" gradientTransform="matrix(1 0 0 -1 -0.77 365.1466)">
				<stop  offset="0" style="stop-color:#FFFFFF"/>
				<stop  offset="0.22" style="stop-color:#FFFFFF;stop-opacity:0.76"/>
				<stop  offset="0.6" style="stop-color:#FFFFFF;stop-opacity:0.36"/>
				<stop  offset="0.87" style="stop-color:#FFFFFF;stop-opacity:0.1"/>
				<stop  offset="1" style="stop-color:#FFFFFF;stop-opacity:0"/>
			</linearGradient>
			<path class="st15" d="M168.8,176.6l-4.2,4.4c0.1,0.3,0.2,0.5,0.4,0.7c0.2,0.3,0.5,0.5,0.8,0.6L168.8,176.6z"/>
			
				<linearGradient id="SVGID_10_" gradientUnits="userSpaceOnUse" x1="167.8744" y1="181.8556" x2="171.1094" y2="187.4516" gradientTransform="matrix(1 0 0 -1 -0.77 365.1466)">
				<stop  offset="0" style="stop-color:#FFFFFF"/>
				<stop  offset="0.22" style="stop-color:#FFFFFF;stop-opacity:0.76"/>
				<stop  offset="0.6" style="stop-color:#FFFFFF;stop-opacity:0.36"/>
				<stop  offset="0.87" style="stop-color:#FFFFFF;stop-opacity:0.1"/>
				<stop  offset="1" style="stop-color:#FFFFFF;stop-opacity:0"/>
			</linearGradient>
			<path class="st16" d="M169.2,177l-2.3,6c0.2,0.3,0.5,0.5,0.8,0.5c0.3,0,0.6,0,0.9,0L169.2,177z"/>
			<path d="M142.5,175.2l-1.9,8.4l-0.4,1.5c0,0,4.6-9.2,12.3-12.3c7.7-3.1,3.8-0.8,22.2-8.4c9.9-4.1,9.2-3.1,9.2-3.1
				c0.8,3,0.8,6.2,0,9.2c-6.1,19.9-35.7,16.6-35.7,16.6s31.1,8,42.6-17.4c2.8-6.2-0.8-19.2-0.8-19.2s-19.9,10.7-29.2,13.8
				c-5.5,1.6-11.2,2.6-16.9,3.1L142.5,175.2z"/>
		</g>
		<g id="b1a7c09c-1697-4bf2-a214-9f26f757a452">
			<path class="st17" d="M165.5,141.4c-16.9,0-33.8,16.9-33.8,16.9l0.8,10c0,0,14.4-15.3,28.4-19.2c10.5-2.8,21.4-3.8,32.2-3.1
				C193.2,146,182.4,141.4,165.5,141.4z"/>
			<path class="st17" d="M91.1,159.1c-6.1,1.5-3.1,10.7-3.1,10.7s-1.5-4.6,4.6-4.6c6.1,0,21.5,6.1,21.5,6.1l-4.6-9.2
				C109.5,162.1,97.3,157.5,91.1,159.1z"/>
		</g>
		<g id="babc3706-0284-4eba-9bd3-49c02fac3144">
			
				<linearGradient id="SVGID_11_" gradientUnits="userSpaceOnUse" x1="148.4296" y1="174.4258" x2="174.5117" y2="186.9913" gradientTransform="matrix(-1 0 0 -1 269.78 365.1466)">
				<stop  offset="0" style="stop-color:#FFFFFF;stop-opacity:0"/>
				<stop  offset="3.000000e-02" style="stop-color:#FFFFFF;stop-opacity:0.14"/>
				<stop  offset="6.000000e-02" style="stop-color:#FFFFFF;stop-opacity:0.32"/>
				<stop  offset="0.11" style="stop-color:#FFFFFF;stop-opacity:0.48"/>
				<stop  offset="0.15" style="stop-color:#FFFFFF;stop-opacity:0.62"/>
				<stop  offset="0.2" style="stop-color:#FFFFFF;stop-opacity:0.74"/>
				<stop  offset="0.25" style="stop-color:#FFFFFF;stop-opacity:0.84"/>
				<stop  offset="0.31" style="stop-color:#FFFFFF;stop-opacity:0.91"/>
				<stop  offset="0.38" style="stop-color:#FFFFFF;stop-opacity:0.96"/>
				<stop  offset="0.47" style="stop-color:#FFFFFF;stop-opacity:0.99"/>
				<stop  offset="0.65" style="stop-color:#FFFFFF"/>
			</linearGradient>
			<path class="st18" d="M121.8,190.9l-4.2-11.8c0,0-14.1-1.9-18.9-4.8l-4.8-2.9c0,0,1.9,11.2,3.4,13.4c1.9,2.9,2.5,6,6.4,6.9
				c2.7,0.9,5.5,1.3,8.3,1.2c2.2,0,4.6-1,7.3-1.6C120.1,191.2,121,191,121.8,190.9z"/>
			<g id="a40f4ddd-54f3-433e-a53d-6c88ae43ed56">
				<path class="st19" d="M111.3,192.3c-1.2,0-2.2-1.2-2.8-2.1c-1.9-3.1-2.8-8.4-1.7-10.6c0.5-1.2,1.8-1.9,3.1-1.8
					c2.1,0.2,4.1,0.8,5.9,1.7c2.2,1.2,3.7,3.3,4.1,5.8c0.5,1.6,0.3,3.3-0.6,4.7C117.9,191.5,115.3,192.3,111.3,192.3z"/>
				<path d="M109.8,178.5L109.8,178.5c2,0.2,3.9,0.7,5.6,1.7c2,1.1,3.3,3.1,3.7,5.3c0.4,1.4,0.3,2.8-0.4,4.1
					c-1.2,1.3-3.6,1.9-7.3,1.9c-0.9,0-1.8-1.1-2.2-1.8c-1.9-3.1-2.5-8.1-1.7-9.8C107.9,179,108.8,178.4,109.8,178.5 M109.8,177
					c-1.6-0.1-3.1,0.8-3.7,2.2c-1.7,3.5,0.9,13.8,5.2,13.8s7.1-0.9,8.5-2.5c2.1-2.4,0.9-9.6-3.7-11.8
					C114.2,177.8,112,177.2,109.8,177L109.8,177z"/>
			</g>
			<g id="a1e2d1ba-2a6d-4ef2-9af7-0b5ae6529abb">
				
					<linearGradient id="SVGID_12_" gradientUnits="userSpaceOnUse" x1="126.1742" y1="158.1997" x2="136.9124" y2="152.1249" gradientTransform="matrix(1.17 0.65 0.59 -1.06 -129.3932 268.9332)">
					<stop  offset="0" style="stop-color:#000000"/>
					<stop  offset="0.14" style="stop-color:#000000;stop-opacity:0.63"/>
					<stop  offset="1" style="stop-color:#000000;stop-opacity:0"/>
				</linearGradient>
				<path class="st20" d="M111.3,192.3c-1.2,0-2.2-1.2-2.8-2.1c-1.9-3.1-2.8-8.4-1.7-10.6c0.5-1.2,1.8-1.9,3.1-1.8
					c2.1,0.2,4.1,0.8,6,1.8c2.2,1.2,3.7,3.3,4.1,5.8c0.5,1.6,0.2,3.3-0.6,4.7C117.9,191.6,115.2,192.3,111.3,192.3z"/>
				<path d="M109.8,178.6L109.8,178.6c2,0.2,3.9,0.7,5.6,1.7c2,1.1,3.3,3.1,3.7,5.4c0.4,1.4,0.3,2.8-0.4,4.1
					c-1.2,1.3-3.6,1.9-7.3,1.9c-0.9,0-1.7-1.1-2.2-1.8c-1.9-3.1-2.5-8.1-1.7-9.8C107.8,179.1,108.8,178.6,109.8,178.6 M109.8,177.1
					c-1.6-0.1-3.1,0.8-3.7,2.2c-1.7,3.5,0.9,13.8,5.2,13.8c4.3,0,7.1-0.9,8.5-2.5c2.1-2.4,0.9-9.6-3.7-11.8
					C114.1,177.9,112,177.3,109.8,177.1L109.8,177.1z"/>
			</g>
			<path d="M113.1,189.2c-2.2-0.3-4.3-4-4.1-6.3c0.2-2.3,2.6-3.2,4.8-2.9c2.2,0.3,4,3.3,3.7,5.6c-0.2,2.2-2.1,3.8-4.3,3.6
				C113.2,189.2,113.2,189.2,113.1,189.2z"/>
			<path class="st14" d="M116.9,184.3c-0.8,0.1-1.7-0.2-2.1-1c-0.3-0.6,0.4-1.3,1.1-1.5c0.6-0.3,1.4,0.4,1.7,1.1
				c0.2,0.5,0,1.1-0.5,1.4C117,184.3,117,184.3,116.9,184.3z"/>
			
				<linearGradient id="SVGID_13_" gradientUnits="userSpaceOnUse" x1="117.0232" y1="154.5915" x2="118.9256" y2="157.8748" gradientTransform="matrix(0.9707 0.2404 0.2404 -0.9707 -41.2487 311.3382)">
				<stop  offset="0" style="stop-color:#FFFFFF"/>
				<stop  offset="0.22" style="stop-color:#FFFFFF;stop-opacity:0.76"/>
				<stop  offset="0.6" style="stop-color:#FFFFFF;stop-opacity:0.36"/>
				<stop  offset="0.87" style="stop-color:#FFFFFF;stop-opacity:0.1"/>
				<stop  offset="1" style="stop-color:#FFFFFF;stop-opacity:0"/>
			</linearGradient>
			<path class="st21" d="M112.4,187l-3.1,1.9c0,0.2,0.1,0.3,0.1,0.5c0.1,0.2,0.2,0.3,0.4,0.5L112.4,187z"/>
			
				<linearGradient id="SVGID_14_" gradientUnits="userSpaceOnUse" x1="118.2813" y1="153.8308" x2="120.1684" y2="157.0835" gradientTransform="matrix(0.9707 0.2404 0.2404 -0.9707 -41.2487 311.3382)">
				<stop  offset="0" style="stop-color:#FFFFFF"/>
				<stop  offset="0.22" style="stop-color:#FFFFFF;stop-opacity:0.76"/>
				<stop  offset="0.6" style="stop-color:#FFFFFF;stop-opacity:0.36"/>
				<stop  offset="0.87" style="stop-color:#FFFFFF;stop-opacity:0.1"/>
				<stop  offset="1" style="stop-color:#FFFFFF;stop-opacity:0"/>
			</linearGradient>
			<path class="st22" d="M112.6,187.2l-2.2,3.1c0.1,0.2,0.2,0.3,0.4,0.4c0.2,0.1,0.3,0.1,0.5,0.1L112.6,187.2z"/>
			<path d="M90.3,169.9c0,0,8.6,2.4,15,4.3c11.1,3.3,12,1,12,1l3.3,9.4c0,0-3.6-5.3-14.5-6.8c-8.4-1.1-8.9-0.8-8.9-0.8
				s0.7,11.1,9.8,14.4c3.9,1.4,6.1,0.9,9.3,0c1.7-0.3,3.3-1,4.8-1.9c0,0-0.8,4.7-13.4,4c-8.2-0.4-9.5-4.4-12.3-11.2L90.3,169.9z"/>
		</g>
		<path id="b52dee57-2fd5-42b6-b53e-126fc2d42ad5" d="M117.7,176.6c0,0,5.1,11.6,0.9,18.7c-3.1,5-6.5,9.8-10.3,14.3l17.2,11.3
			l-12.3-12.2c0,0,8.3-12.3,8.5-16.6C122.2,186.4,117.7,176.6,117.7,176.6z"/>
		<path id="e4c730d4-e5c5-4419-81d6-afb46bf5e098" d="M123,236.6c-1.7-1.4-1.7-2.5,0.5-2.9c1.5-0.2,3.4,0.2,5.1,0
			c8.6-0.8,25.6-4.4,32-0.3c6.4,4.2,0.2,2.1,0.2,2.1s-3-2.1-13.1-1.4c-10.2,0.7-15.2,3.6-17.9,4.3
			C127.4,238.9,124.9,238.3,123,236.6z"/>
		<g id="f0f68582-2774-4882-aa5e-416c923e11b2">
			<path class="st23" d="M298.1,158.8c-3.9-30.2-2.1-49.9-14.3-74.5c-15.3-30.8-37.4-51.4-72.5-56.6c-30.7-4.6-112.1,13.8-132,75.2
				c-8.8,27.2-2.5,71-0.8,113.5c2.3,57.5,2.7,89.9,2.7,89.9l7.5-27.9l5.3,31.7c0,0,5.4-11.3,11.6-15.9c6.1-4.6,46-18.8,46-18.8
				l-10,1c-8.3-3-36.1-27.6-39-47c-3.1-19.9,0-23-6.1-38.4c-6.1-15.3-9.2-21.8-9.2-21.8l31.4,8.5c8.8-4.3,17.4-9,25.7-14.3
				c14.7-9.2,21.7-11,21.7-11c5.4-0.5,15-1.9,17.6,1.4c1.1,1.3,10,14.3,14.9,44.6c6.7,41.7,4.5,96,4.5,96l11.8-38.5l3.9,21.2
				l5.5-20.6l3.1,24.1l80.9-49.1C308.2,231.8,302.9,196.7,298.1,158.8z"/>
		</g>
		<g class="st24">
			<path d="M142.2,276.6l-0.9-0.4c-8.3-3-37.9-28.6-40.9-47.9c-3.1-19.9-0.3-22.4-6.4-37.7c-6.1-15.3-8.4-23-8.4-23l31.3,10.7
				c-5.3-9.2-6.8-23.1-10.2-56.3c-7.1-68.3,52.1-83.6,52.5-87.5C95.3,58,84.3,85.9,80,101.1c-7.7,27.2-1.1,72.1-1.5,114.8
				c-0.6,54.4,3.4,73.6,2.3,97.7l8.6-42.9l6.1,34.1c2.1-4.2,5.1-7.8,8.8-10.6c5-3.7,29-12.7,37.8-16
				C143.6,277.7,143.4,277.6,142.2,276.6z"/>
		</g>
		<path id="ee31eb60-c7da-4786-aee8-eed63b9af425" class="st25" d="M271.9,67l-8-5.3l1.8,15.9l-15-13.7v5.3l-4.4-4l1.3,12.4
			l-21.2-17.7c3.3,7.7,6,15.6,8.2,23.6c1.6,5.7,2.8,11.5,3.5,17.4L218.8,82l5.3,12.4l-13-14c0,0,5,8.8,6.3,13.5
			c1.4,5,0.9,7.1,0.9,7.1l-15-14.6c0,0,0.4,4.9,0.9,10.6s0.4,13.7,0.4,13.7s-4.4-0.8-8.4-7.1c-1.9-3.1-3.5-6.3-4.9-9.7l-2.2,26.5
			l4.9-12.4c0,0,0.4,1.3,5.3,4.4c3.1,1.9,6.3,3.6,9.7,4.9l0.4-19l15,8.8L222.3,97l19.2,13.9c0,0,2.9-11.7,0.7-20.5
			c-1.5-5.7-3.5-11.1-6.1-16.4c4.3,3.2,8,7.1,11,11.5c2.4,3.5,4,7.4,4.9,11.5l-0.4-21.6c4.1,2.4,7.6,5.7,10.2,9.7
			c3,4.4,5.5,9.2,7.5,14.1l2.4-19.2c0,0,12.3,11.2,17.9,17.7C294.8,103.8,271.9,67,271.9,67z"/>
		<path d="M85.2,169.9c-1.5-3.8-2.8-7.8-3.8-11.8c-1.7-6.7-2.1-18.8-2.1-18.8s1.6,12.9,4,18.8c1.9,4.4,4,8.6,6.5,12.6L85.2,169.9z"
			/>
		<path d="M114,177.3c0,0-1.8-6-3.7-14.3c-1.4-7.8-2.4-15.7-2.9-23.6c0,0,2.3,16,4.9,23.3c2.6,7.3,6.7,15.6,6.7,15.6L114,177.3z"/>
		<path d="M164.7,115.2c0,0,13.4,28.6,18.4,38.4c2.4,4.6,10.4,26.6,10.4,26.6l1.1-1.5c-2.4-9.1-5.4-18-8.9-26.6
			C181,141.2,164.7,115.2,164.7,115.2z"/>
		<g id="a832fcd5-c64e-4a63-a163-a7fca256c743">
			<path d="M201.3,29.5c3.2,0,6.5,0.2,9.7,0.6c31.9,4.8,55.2,22.8,71.4,55.1c8.6,17.2,9.8,32.2,11.3,51c0.6,7.3,1.2,14.8,2.2,23.2
				c4.1,32.4,9.1,63.6,10.4,71.7L228,279.6l-1.2-16.4l-1.7-23.7l-4.4,23.4l-1.4,7.5l-1.8-10.5l-2.3-13.7l-3.7,13.4l-6.4,23.3
				c-0.4-22.6-1.8-58-6-84.4c-5.1-32-13.5-43.2-14.4-44.4c-2.4-3.1-6.5-3.4-9.4-3.4c-2.3,0-4.6,0.2-6.9,0.5l-1.7,0.2h-0.2h-0.2
				c-0.3,0-7.4,1.7-22.4,11.1c-11.9,7.4-21.6,12.9-24.8,14.6l-29.5-8.8l-5.7-1.7l1.9,5.6c0,0.2,1.6,4.9,7.7,20.1
				c2.7,6.5,4.2,13.4,4.2,20.4c0.3,5.9,0.9,11.7,1.8,17.5c3,19.3,29.3,41.6,40.3,47.2c-13.3,5.6-33.2,14.2-37.6,17.4
				c-3,2.6-5.5,5.8-7.2,9.4l-3.2-25.7l-2.4-19.6l-3.6,19.3l-3.7,19.7c-0.5-20.8-1.3-50.2-2.5-80.7c-0.4-9.2-0.9-18.8-1.5-27.9
				c-2-33.6-3.9-65.3,2.9-86.1c9.7-29.9,34.4-47.4,53.4-56.9C159.2,33.9,185.2,29.4,201.3,29.5 M201.3,26.3
				c-35.8,0-105.3,20.4-123.3,75.9c-8.8,27.2-3.3,72.4-1.5,115.1c2.3,57.5,3.1,110.5,3.1,110.5l9.2-49.1l4.6,36.8
				c0,0,4.6-13.8,10.7-18.4s48.8-21.9,48.8-21.9l-9.9,0.1c-8.3-3-37.5-26.4-40.4-45.7c-3.1-19.9,0-23-6.1-38.4
				c-6.1-15.3-7.7-19.9-7.7-19.9l30.7,9.2c0,0,11.3-6.1,26.1-15.3c14.7-9.2,21.5-10.7,21.5-10.7c2.6-0.3,5.6-0.7,8.3-0.7
				c3.1,0,5.6,0.5,7,2.2c1.1,1.4,8.9,12.6,13.8,43c6.7,41.7,6.1,105.9,6.1,105.9l12.3-44.5l4.6,27.6l4.6-24.5l1.5,21.5l84.4-52.2
				c0,0-5.9-35.8-10.7-73.6c-3.9-30.2-1.5-50.6-13.8-75.2c-15.4-30.8-38.6-51.5-73.6-56.8C208.1,26.5,204.7,26.3,201.3,26.3z"/>
		</g>
	</g>
</g>
</svg>
