<svg xmlns="http://www.w3.org/2000/svg" xmlns:xlink="http://www.w3.org/1999/xlink" viewBox="0 0 1163.26 828"><defs><radialGradient id="a156b4df-9b80-4c7d-a9f3-e3fd30c0a5cf" cx="557.32" cy="465.06" fx="1109.6902558081233" fy="465.0638297872338" r="557.95" gradientUnits="userSpaceOnUse"><stop offset="0" stop-color="#4b0b2c"/><stop offset="0.24" stop-color="#490b2f"/><stop offset="0.32" stop-color="#460c32"/><stop offset="0.41" stop-color="#420b31"/><stop offset="0.5" stop-color="#360930"/><stop offset="0.58" stop-color="#22052d"/><stop offset="0.66" stop-color="#0a002a"/><stop offset="0.84" stop-color="#0a021d"/><stop offset="1" stop-color="#0a040f"/></radialGradient><linearGradient id="a0e9e195-9701-4cb5-a1a9-b3ad79e25fb7" x1="453.09" y1="750.37" x2="854.26" y2="-178.77" gradientUnits="userSpaceOnUse"><stop offset="0.01" stop-color="blue" stop-opacity="0.18"/><stop offset="1"/></linearGradient></defs><g id="a1df7bf7-90e1-4d7a-b73a-3b47072d5b4b" data-name="Layer 2"><g id="b255db03-6e11-4f8d-a825-40ae595a6d86" data-name="Layer 5"><circle cx="557.32" cy="414" r="414" style="fill:url(#a156b4df-9b80-4c7d-a9f3-e3fd30c0a5cf)"/><path d="M971.59,421.87q-.33,8.83-1,17.58c100.9,55.21,158.24,109.73,147.82,146.78-19.26,68.54-271,57.73-562.36-24.14S44.13,358.29,63.39,289.76c7.41-26.37,50.46-41.94,117.21-46.45a14.14,14.14,0,0,1,1.21-3.87q4.22-9.06,8.87-17.88c-105.75,2-176.6,24.71-188.82,68.19-25.47,90.64,213.45,237.06,533.65,327s600.41,89.45,625.88-1.19C1176.29,562.61,1100.82,490.56,971.59,421.87Z" style="opacity:0.5;fill:url(#a0e9e195-9701-4cb5-a1a9-b3ad79e25fb7)"/></g></g></svg>