<svg xmlns="http://www.w3.org/2000/svg" viewBox="0 0 366 366"><g id="bc1f3e34-99dc-4b56-a51a-5cf275bf51bb" data-name="Layer 2"><g id="ad8564f0-5d57-4627-a83f-68fc8cbc991d" data-name="Layer 1"><g id="b19cf360-2677-4a83-8f10-0c78b29c57e9" data-name="Ellipse 1"><path d="M183,8A175,175,0,0,1,306.74,306.74,175,175,0,1,1,59.26,59.26,173.82,173.82,0,0,1,183,8m0-8A183,183,0,1,0,366,183,183,183,0,0,0,183,0Z" style="fill:#222"/></g><g id="f74b1612-96fa-4e2c-ad50-e7959cfd306b" data-name="Layer 7"><path d="M267.5,254.46v16a14.57,14.57,0,0,1-14.58,14.57H113.56A14.57,14.57,0,0,1,99,270.48V97.93a14.57,14.57,0,0,1,14.57-14.58H252.92A14.58,14.58,0,0,1,267.5,97.93V208.42" style="fill:none;stroke:#999;stroke-miterlimit:10;stroke-width:3px"/><line x1="98.9" y1="116.88" x2="266.88" y2="116.88" style="fill:none;stroke:#999;stroke-miterlimit:10;stroke-width:3px"/><line x1="266.02" y1="148.54" x2="140.87" y2="148.54" style="fill:none;stroke:#999;stroke-miterlimit:10;stroke-width:3px"/><circle cx="130.68" cy="148.61" r="10.55" style="fill:none;stroke:#999;stroke-miterlimit:10;stroke-width:3px"/><line x1="98.5" y1="178.01" x2="223.65" y2="178.01" style="fill:none;stroke:#999;stroke-miterlimit:10;stroke-width:3px"/><circle cx="233.84" cy="178.08" r="10.55" style="fill:none;stroke:#999;stroke-miterlimit:10;stroke-width:3px"/><line x1="268.89" y1="206.94" x2="141.31" y2="206.94" style="fill:none;stroke:#999;stroke-miterlimit:10;stroke-width:3px"/><circle cx="131.12" cy="207" r="10.55" style="fill:none;stroke:#999;stroke-miterlimit:10;stroke-width:3px"/><line x1="98.94" y1="236.41" x2="224.09" y2="236.41" style="fill:none;stroke:#999;stroke-miterlimit:10;stroke-width:3px"/><circle cx="234.28" cy="236.47" r="10.55" style="fill:none;stroke:#999;stroke-miterlimit:10;stroke-width:3px"/><path d="M256.92,267.85l-19.1,6.7,2-20.29L290.87,190a7.15,7.15,0,0,1,10-1.15l5.92,4.71a7.14,7.14,0,0,1,1.15,10Z" style="fill:none;stroke:#999;stroke-miterlimit:10;stroke-width:3px"/><line x1="284.74" y1="197.14" x2="302.03" y2="210.88" style="fill:none;stroke:#999;stroke-miterlimit:10;stroke-width:3px"/><line x1="241.03" y1="253.2" x2="257.91" y2="266.61" style="fill:none;stroke:#999;stroke-miterlimit:10;stroke-width:3px"/></g></g></g></svg>