<svg xmlns="http://www.w3.org/2000/svg" xmlns:xlink="http://www.w3.org/1999/xlink" viewBox="0 0 208.89 280.76"><defs><clipPath id="bcfb1f2d-c68b-44a5-a9f1-ce54e7221cde" transform="translate(-27.95 -1.93)"><rect x="0.77" y="1.11" width="251.23" height="274.17" style="fill:none"/></clipPath><linearGradient id="a5e5afa3-05a9-4281-9628-bbf8f98f93d2" x1="137.18" y1="213.74" x2="137.18" y2="155.13" gradientUnits="userSpaceOnUse"><stop offset="0" stop-color="#fcee21"/><stop offset="1" stop-color="#d4145a"/></linearGradient><radialGradient id="ac460d37-6c85-4357-a0f8-397077cf07b6" cx="114.33" cy="123.57" r="76.58" gradientUnits="userSpaceOnUse"><stop offset="0.01" stop-color="#ff1d25"/><stop offset="0.8"/></radialGradient><linearGradient id="ef7400bb-cd68-4975-a3fa-2dabb56fc0fd" x1="96.1" y1="150.75" x2="128.54" y2="98.01" gradientUnits="userSpaceOnUse"><stop offset="0" stop-color="#fbb03b"/><stop offset="0.01" stop-color="#fbad3c" stop-opacity="0.98"/><stop offset="0.17" stop-color="#f7884c" stop-opacity="0.72"/><stop offset="0.34" stop-color="#f4685a" stop-opacity="0.5"/><stop offset="0.49" stop-color="#f24d65" stop-opacity="0.32"/><stop offset="0.64" stop-color="#f0396e" stop-opacity="0.18"/><stop offset="0.77" stop-color="#ee2a74" stop-opacity="0.08"/><stop offset="0.9" stop-color="#ed2178" stop-opacity="0.02"/><stop offset="1" stop-color="#ed1e79" stop-opacity="0"/></linearGradient><linearGradient id="bb6d0e6c-5b01-4502-b8bd-5217bebc8940" x1="-207.33" y1="122.38" x2="-179.52" y2="109" gradientTransform="matrix(-1, 0.03, 0.03, 1, -84.11, 0.59)" gradientUnits="userSpaceOnUse"><stop offset="0" stop-color="#fff" stop-opacity="0"/><stop offset="0.03" stop-color="#fff" stop-opacity="0.14"/><stop offset="0.06" stop-color="#fff" stop-opacity="0.32"/><stop offset="0.11" stop-color="#fff" stop-opacity="0.48"/><stop offset="0.15" stop-color="#fff" stop-opacity="0.62"/><stop offset="0.2" stop-color="#fff" stop-opacity="0.74"/><stop offset="0.25" stop-color="#fff" stop-opacity="0.84"/><stop offset="0.31" stop-color="#fff" stop-opacity="0.91"/><stop offset="0.38" stop-color="#fff" stop-opacity="0.96"/><stop offset="0.47" stop-color="#fff" stop-opacity="0.99"/><stop offset="0.65" stop-color="#fff"/></linearGradient><linearGradient id="b7394583-3cb4-4709-bdf0-3f1ae65a7534" x1="-177.01" y1="179.66" x2="-167.46" y2="186.69" gradientTransform="matrix(-0.9, 0.44, 0.44, 0.9, -124.76, 26.01)" gradientUnits="userSpaceOnUse"><stop offset="0"/><stop offset="0.06" stop-color="#090202"/><stop offset="0.16" stop-color="#230708"/><stop offset="0.28" stop-color="#4c0f12"/><stop offset="0.43" stop-color="#851b1f"/><stop offset="0.57" stop-color="#c1272d"/><stop offset="0.87" stop-color="#ff1d25"/><stop offset="0.99" stop-color="#ff1d25"/></linearGradient><linearGradient id="e4add526-1a29-4c86-ab04-6da8e9e2d1cf" x1="-164.35" y1="207.04" x2="-162.19" y2="203.3" gradientTransform="matrix(-0.81, 0.58, 0.58, 0.81, -136.65, 40.02)" gradientUnits="userSpaceOnUse"><stop offset="0" stop-color="#c3474b"/><stop offset="0" stop-color="#c3474b"/><stop offset="0.5" stop-color="#c3474b" stop-opacity="0.47"/><stop offset="0.84" stop-color="#c3474b" stop-opacity="0.13"/><stop offset="1" stop-color="#c3474b" stop-opacity="0"/></linearGradient><linearGradient id="a7d1ed02-5d75-40a8-b335-edfa21122bcc" x1="-162.95" y1="207.92" x2="-160.8" y2="204.2" gradientTransform="matrix(-0.81, 0.58, 0.58, 0.81, -136.65, 40.02)" gradientUnits="userSpaceOnUse"><stop offset="0" stop-color="#c3474b" stop-opacity="0.3"/><stop offset="0.53" stop-color="#c3474b" stop-opacity="0.13"/><stop offset="1" stop-color="#c3474b" stop-opacity="0"/></linearGradient><radialGradient id="a30637d9-2c1b-4470-8ae8-ddb521ca560f" cx="67.69" cy="99.67" r="36.28" gradientUnits="userSpaceOnUse"><stop offset="0" stop-color="#fcee21"/><stop offset="0.27" stop-color="#fcee21" stop-opacity="0.72"/><stop offset="0.78" stop-color="#fcee21" stop-opacity="0.21"/><stop offset="1" stop-color="#fcee21" stop-opacity="0"/></radialGradient><linearGradient id="ebca07e3-2c01-4285-99c9-9190b692f571" x1="114.7" y1="64.99" x2="141.96" y2="45.95" gradientTransform="matrix(-0.9, 0.11, 0.12, 0.93, 273.03, -7.82)" gradientUnits="userSpaceOnUse"><stop offset="0"/><stop offset="1" stop-color="#c1272d"/></linearGradient><linearGradient id="f834d602-0e6f-478a-a0cf-5d2cb0635751" x1="101.08" y1="53.6" x2="130.01" y2="70.81" gradientTransform="matrix(1, 0.04, -0.04, 1, 2.25, -4.23)" gradientUnits="userSpaceOnUse"><stop offset="0" stop-color="#d41920"/><stop offset="1"/></linearGradient><radialGradient id="ac1df36d-06ca-4bca-98e7-e328110340da" cx="169.81" cy="208.02" fx="155.58747379626328" fy="195.63636375266677" r="18.86" gradientUnits="userSpaceOnUse"><stop offset="0.14" stop-color="#fbb03b"/><stop offset="0.61" stop-color="#c1272d"/><stop offset="0.66" stop-color="#ba262b"/><stop offset="0.74" stop-color="#a72224"/><stop offset="0.83" stop-color="#881c19"/><stop offset="0.94" stop-color="#5e140b"/><stop offset="1" stop-color="#3f0e00"/></radialGradient><radialGradient id="f01d95e4-a3c9-4ac1-a0b6-dd73a5627174" cx="134.22" cy="198.07" r="5.77" gradientUnits="userSpaceOnUse"><stop offset="0" stop-color="#fff"/><stop offset="0.21" stop-color="#fff" stop-opacity="0.76"/><stop offset="0.6" stop-color="#fff" stop-opacity="0.36"/><stop offset="0.87" stop-color="#fff" stop-opacity="0.1"/><stop offset="0.99" stop-color="#fff" stop-opacity="0"/></radialGradient></defs><g id="fb4305d4-9ea8-4655-9bce-ba2f728ee41f" data-name="Layer 2"><g id="aea8e573-2ca6-413e-8d62-a436923bdca4" data-name="Layer 26"><g style="clip-path:url(#bcfb1f2d-c68b-44a5-a9f1-ce54e7221cde)"><path d="M50.23,277.53H89.38c-1.06-4.3-2.18-9.23-3.12-13.65-3.05-14.2-5.38-26.22-5.38-26.22L34.45,206.09s1.66,30.23,15.21,69.72C49.83,276.31,50,276.89,50.23,277.53Z" transform="translate(-27.95 -1.93)" style="fill:#bdccd4;stroke:#000;stroke-miterlimit:10;stroke-width:2px"/><path d="M193.4,276.51h42.12c-.28-4-.5-6.88-.62-7.95-4.64-43.51-6.52-68.25-6.52-68.25l-37.72,24.9s.26,30.39,2,44.77Q193,273.22,193.4,276.51Z" transform="translate(-27.95 -1.93)" style="fill:#bdccd4;stroke:#000;stroke-miterlimit:10;stroke-width:2px"/><g id="ec86d454-82f6-458a-84f6-2ee5cf5605f8" data-name="suit"><path d="M137.38,276.52c-2.44.2-8.21,1-21.16,3.18-28.57,4.84-33.54,1.84-45.77-20.49-2.37-4.33-1.62-14.87,1.4-32.22,1.11-6.4-20.92-34.7-15.76-38.76,10.55-8.29,35.82-17.17,35.82-17.17l46.22-3.83L192.6,177.4s22.05,59.61,10.21,81.41c-12.05,22.19-14.08,25.73-42.66,20.89-12.94-2.19-18.71-3-21.15-3.18Z" transform="translate(-27.95 -1.93)" style="fill:#bdccd4;stroke:#000;stroke-miterlimit:10;stroke-width:2px"/><path d="M181,171.4c-1.4-.44-8.15-3.66-11.72-5.19-7.28-3.12-2.81-20.42-2.81-20.42,1.53.76-22.53-1-28.28-1.47v-.07l-.42,0-.42,0v.07c-5.74.44-41.24,3-41,3,0,0,6.6,14.55-.81,17.36-1.91.72-5.59,1.28-7,1.72a5.28,5.28,0,0,0-3.12,7.4c5.13,10.22,15.72,29.65,20.09,33.26,5.26,4.35,27.29,18.92,31.84,21.92,0,0,.16.45.42.28.27.17.42-.28.42-.28,4.56-3,26.58-17.57,31.84-21.92,4.37-3.61,9-18,14.1-28.26A5.28,5.28,0,0,0,181,171.4Z" transform="translate(-27.95 -1.93)" style="fill:#bdccd4;stroke:#000;stroke-miterlimit:10;stroke-width:2px"/><path d="M165.88,161.9l-28.7,1.83-28.71-1.83s-3.85,32.46,8,43.56c11.09,10.37,20.7,14.16,20.7,14.16s9.61-3.79,20.7-14.16C169.74,194.36,165.88,161.9,165.88,161.9Z" transform="translate(-27.95 -1.93)" style="stroke:#000;stroke-miterlimit:10;stroke-width:2px;fill:url(#a5e5afa3-05a9-4281-9628-bbf8f98f93d2)"/><path d="M108.38,165.83S122.3,179,137.87,180.77c10.19,1.16,21.19-14.05,21.19-14.05L110.3,160Z" transform="translate(-27.95 -1.93)" style="opacity:0.6000000000000001"/></g><path d="M56.33,203.14c-4.58-6-13-11.07-21.42-4.25a16.67,16.67,0,0,0-5.19,17.7c1.44,3.68,11.82,9,21.26,15A93.38,93.38,0,0,0,82.72,243.9s-9.82-10.85-21-24.4C57.34,214.25,60.58,208.72,56.33,203.14Z" transform="translate(-27.95 -1.93)" style="fill:#bdccd4;stroke:#000;stroke-miterlimit:10;stroke-width:2px"/><path d="M73.46,191.71c-2-7.79-12.13-17.4-20.08-14.08-9.83,4.11-12.27,13.93-11.08,17.91s6.79,11.4,14.71,22.33c10.87,15,41.84,20.47,41.84,20.47s-17.06-8.56-22.4-26.47C74.11,204,75.45,199.58,73.46,191.71Z" transform="translate(-27.95 -1.93)" style="fill:#bdccd4;stroke:#000;stroke-miterlimit:10;stroke-width:2px"/><path d="M101.41,225.51c-8.29-3.79-21.71-10.95-28.57-20-7.54-10-12.47-24.68-12.52-24.83-.11-.34-2.61-8.1,7-11.79a14.41,14.41,0,0,1,5.12-1.07c9.48,0,12.49,13.24,14.34,27.55C88.79,210.84,96,220.39,101.41,225.51Z" transform="translate(-27.95 -1.93)" style="fill:#bdccd4"/><path d="M72.45,168.77c8.71,0,11.56,12.82,13.35,26.67,1.61,12.48,6.53,21.17,11.26,26.87-7.92-4-17.88-10.1-23.42-17.45-7.44-9.88-12.32-24.4-12.38-24.55-.24-.74-2.11-7.27,6.42-10.53a13.45,13.45,0,0,1,4.77-1m0-2A15.35,15.35,0,0,0,67,167.91c-10.68,4.09-7.6,13-7.6,13S64.31,195.8,72,206.06c10.6,14.07,36.13,23.39,36.13,23.39S91,220.14,87.78,195.19c-1.66-12.85-4.51-28.42-15.33-28.42Z" transform="translate(-27.95 -1.93)"/><path d="M213.53,203.44c3.76-5.1,10.65-9.39,17.49-3.67,5.36,4.48,5.36,11.8,4.17,14.9S227.39,224,219.67,229c-12.51,8.24-27.07,7.34-27.07,7.34A115.33,115.33,0,0,0,211,218C214.52,213.58,210.05,208.16,213.53,203.44Z" transform="translate(-27.95 -1.93)" style="fill:#bdccd4;stroke:#000;stroke-miterlimit:10;stroke-width:2px"/><path d="M198.71,193c1.77-7,10.9-15.63,18-12.65,8.83,3.7,11,12.51,10,16.09s-6.1,10.24-13.22,20.06c-9.76,13.46-37.59,18.39-37.59,18.39s15.34-7.69,20.13-23.78C198.12,204,196.92,200,198.71,193Z" transform="translate(-27.95 -1.93)" style="fill:#bdccd4;stroke:#000;stroke-miterlimit:10;stroke-width:2px"/><path d="M185.52,192.62c1.47-12.45,4.38-25.86,17-20.8,8.78,3.51,6.3,11,6.3,11s-4,12.47-10.23,21.07C190,215.71,175,224.32,175,224.32S183,213.61,185.52,192.62Z" transform="translate(-27.95 -1.93)" style="fill:#bdccd4;stroke:#000;stroke-miterlimit:10;stroke-width:2px"/><path d="M62,238l-3.83,1.78s2-.25,4.85,11c1.15,4.57,3.94,14.94,6.9,26.45h68.49l14.23-104.83-54-14.64a12.4,12.4,0,0,1-.17,4c3.24,1.43,5.61,2.85,6,4,1.27,4.34-1.28,6.9.76,18.13s3.58,15.57,3.58,15.57-4.48,3.6-10.13-6.63c-10.73-19.41-6.17-27.43-6.73-28.05-1.68.28-5.36,2.44-5.87,3.28a8,8,0,0,0-.68,4.34l-3.06,2.72s-3.92-7.06-7-7.19a29.79,29.79,0,0,0-4.71.15c.39.35-4.22.69-3.87,1,4.35,3.83,4.54,17.85,8.88,28.07s8.64,17.63,11.19,19.68-13-7.66-15.58-11.49S60.51,182,59.74,178.21c0-.12,0-.26-.06-.41-1.78,0-8,.32-10.06,1.69a9.86,9.86,0,0,0-2.21,2,4.5,4.5,0,0,0,.08.51C48.77,187.66,59,215,65.87,220.09s16.85,14,16.85,14-17.1-7.66-19.91-10.22-20.17-26-20.17-26l-1.26-3.4c-1.81.87-6.51,3.33-9.47,6.59,1.4,1.93,3.81,5.21,4.35,5.75C37,207.57,62,238,62,238Z" transform="translate(-27.95 -1.93)" style="opacity:0.4"/><path d="M234.8,276.85l-5.2-55s3.53-4.63,6.38-7.91c2-2.28.25-6.9-2-11.24a10.14,10.14,0,0,0-6.64-5.1s1.27-6.13-5.36-13.54-12.77-1.78-12.77-1.78,2.81-6.64-6.38-10.73-14.56,4.6-14.56,4.6l-3.32.51-1.27-3.57-19.92-9.71-17.87,8.43-9.4,105Z" transform="translate(-27.95 -1.93)" style="opacity:0.7000000000000001"/><path d="M193.53,177.45c5.36,4.08-4.59,22.21-4.59,22.21L184.6,216l14.55-12.51,8.94-18.64s7.91,4.85,5.36,11.75-10.22,19.4-14.56,23.23-16.59,13.79-16.59,13.79L202.47,226,216,214.47l8.68-13.53s5.36,8.42,1.28,13.53-27.07,17.36-27.07,17.36l-5.61,4.08,5.87-.51s.76,11.24-6.13,20.69c-4.8,6.57-11.81,16-15.64,21.1h57.45l-5.23-55.33s5.73-3.61,6.38-7.91a22.18,22.18,0,0,0-2-11.24,10.14,10.14,0,0,0-6.64-5.1s1.27-6.13-5.36-13.54-12.77-1.78-12.77-1.78,2.81-6.64-6.38-10.73-14.56,4.6-14.56,4.6l-3.32.51-1.27-3.57-19.92-9.71-15.15,7.15,36.79,15.59S188.17,173.36,193.53,177.45Z" transform="translate(-27.95 -1.93)" style="opacity:0.4"/><g id="e5d2ff79-426e-474a-b726-a9ab99a36289" data-name="shield"><path d="M205.05,109.42c-.76,33.36-31.31,59.73-68.25,58.9S70.53,139.76,71.28,106.4,58.67,46.8,139.53,47.5C208.13,48.09,205.8,76.05,205.05,109.42Z" transform="translate(-27.95 -1.93)" style="stroke:#000;stroke-miterlimit:10;stroke-width:2px;fill:url(#ac460d37-6c85-4357-a0f8-397077cf07b6)"/><path d="M141.77,166.82c9-3.7,26.54-7.93,36.74-29.54,5.79-12.26,9.23-35.38,3.75-44.94-7.55-13.15-41.88,3.4-41.88,3.4l40.51-41.53c-7.52-12-5.41-7.85-41-8.15C59,45.36,72.38,71.59,71.63,105s28.58,61.08,65.52,61.92C138.7,166.91,140.24,166.88,141.77,166.82Z" transform="translate(-27.95 -1.93)" style="fill:url(#ef7400bb-cd68-4975-a3fa-2dabb56fc0fd)"/><path d="M87.87,122.21c5.31,7.84,8,21.85,14.56,26.68C117.74,160.13,137.36,168,137.36,168l-13.27-1-13.79-4-16.51-9.62Z" transform="translate(-27.95 -1.93)"/><path d="M189.81,80.11C185.67,74,124,88.23,124,88.23s-4.19,0-14.11-5.15c-14.58-7.55-41.54-11.4-41.54-11.4l3.24,49.7L84.13,151l45.06,14.53s-22.72-13.76-27.28-25.89c-1.62-4.34-4.34-17-4-18.38,8.08,3.09,10.59,3.27,16.83,2.15,14-2.54,19.6-6,27.22-4.9.31,0-.36,6,3,12.64.49,1-3.16,4.42-4.09,8.23-.35,1.46-.93,8.28-2,14.92a87.87,87.87,0,0,1-3.12,13.59l13.78-3.23s22.5-4.58,22.64-4.94C174.42,154.1,206.74,105,189.81,80.11Z" transform="translate(-27.95 -1.93)" style="opacity:0.6000000000000001"/><path d="M69.16,127.62l-8-56.39c6.78.09,41,.55,46.76,1,4.23.33,18.55,13.49,28.15,23.22C132.27,95.2,122,93.87,95.67,88a2.76,2.76,0,0,0-.57-.06,2.47,2.47,0,0,0-1.92.94c-5.38,6.32,1.5,53.73,3.63,67.5Z" transform="translate(-27.95 -1.93)" style="fill:#4a0008"/><path d="M62.35,72.24c8.85.12,40.09.56,45.54,1,3.48.27,16,11.45,25.56,21-5.24-.61-15.95-2.37-37.57-7.22a4.13,4.13,0,0,0-.78-.08,3.42,3.42,0,0,0-2.68,1.3c-1.15,1.34-4.19,4.92-.47,39,1.11,10.15,2.51,20.07,3.42,26.21L70.1,127.16,62.35,72.24m-2.31-2,8.17,57.88L98.3,159.32S86.93,88.89,95.1,88.9a1.45,1.45,0,0,1,.35,0c30.19,6.76,39.37,7.56,42,7.56a3.94,3.94,0,0,0,1-.07s-24-24.69-30.43-25.2-48-1-48-1Z" transform="translate(-27.95 -1.93)"/></g><g id="a3266a1e-b772-4e09-8fce-98e1193d0bac" data-name="face"><g id="f75c6bdc-691b-4df4-8218-709ab8645067" data-name="r_eye"><path d="M128.36,114.57l-3.43-8.64s-17.41-3.53-22.59-6.44l-5.18-2.9s.82,11.91,2.49,14.27c2.14,3,4.23,5,8.33,5.88s5.61,1.37,9.67,1.23a28.24,28.24,0,0,0,6.87-1.16A10.92,10.92,0,0,0,128.36,114.57Z" transform="translate(-27.95 -1.93)" style="opacity:0.30000000000000004;fill:url(#bb6d0e6c-5b01-4502-b8bd-5217bebc8940)"/><path id="a566fc37-31f4-4e8e-a787-cf76a304b731" data-name="R_EYE_GRADIENT" d="M107.82,115.65c4.22,1.31,4.83,1.95,7.62,1.79,3.72-.22,4.15-7.65,1.55-9.81-3.71-3.08-6.63-3.21-9.7-1.08C103.77,109,104.6,114.66,107.82,115.65Z" transform="translate(-27.95 -1.93)" style="stroke:#000;stroke-miterlimit:10;fill:url(#b7394583-3cb4-4709-bdf0-3f1ae65a7534)"/><path d="M113,114.59a4.56,4.56,0,0,0,3.46-4.27c.2-2,.58-4-3.94-4.26-5.39-.35-5.17,3.59-4.68,5.72S111.07,115,113,114.59Z" transform="translate(-27.95 -1.93)"/><path d="M107.7,110.53a2.61,2.61,0,0,0,2.56-1.62c.26-.88-.74-1.64-1.61-1.9s-1.75.78-2,1.66A1.42,1.42,0,0,0,107.7,110.53Z" transform="translate(-27.95 -1.93)" style="fill:#c3474b;opacity:0.8"/><path d="M113.26,111.82l4,.76a1.76,1.76,0,0,1,.06.55,1.34,1.34,0,0,1-.17.64Z" transform="translate(-27.95 -1.93)" style="opacity:0.36;fill:url(#e4add526-1a29-4c86-ab04-6da8e9e2d1cf)"/><path d="M113.18,112.17l3.57,2.36a.9.9,0,0,1-.24.6,2,2,0,0,1-.46.35Z" transform="translate(-27.95 -1.93)" style="fill:url(#a7d1ed02-5d75-40a8-b335-edfa21122bcc)"/><path d="M127.15,109.47l1.39,5.24.26,1s-3.08-5.68-8-7.44-2.43-.41-14.17-4.84c-6.29-2.37-5.86-1.73-5.86-1.73a10.75,10.75,0,0,0,.19,5.77c4.26,12.38,22.8,9.66,22.8,9.66s-19.41,5.63-27.17-10c-1.91-3.86.1-12,.1-12s12.77,6.33,18.63,8.06A51.23,51.23,0,0,0,126,104.7Z" transform="translate(-27.95 -1.93)"/></g><path d="M117.48,141.51c.46-.37,3.25,2.67,9.38,3.4,4.76.57,15.6.54,19.87.48.67,0,2.57-1.12,2.85-.88s-2.27,1.93-3,2.13-19.25.2-21.9,0S117,141.87,117.48,141.51Z" transform="translate(-27.95 -1.93)"/><path d="M142,117.08a38,38,0,0,0-.38,7.23,31.9,31.9,0,0,0,1.91,6.95l-2.4,7.22,5.74-8a16.31,16.31,0,0,1-3.28-4.3C142.12,123.43,142,117.08,142,117.08Z" transform="translate(-27.95 -1.93)"/></g><path d="M192.86,56.77c-8-17.2-22.81-14.24-23.38-22-.29-4,5.63,0,13.36-5.95,4.94-3.82,4.61-7.74-.29-11.67-6.48-5.2-23.37-14-44.39-14.27h-.54c-21.07.24-44,8.24-50.53,13.44-4.9,3.93-5.23,8.85-.29,12.68,7.73,6,15.65,2,15.36,5.94-.57,7.72-15.39,4.75-23.38,22C72.56,70.36,71,77.31,71.88,85a.62.62,0,0,0,1.21.1C74.56,79.74,87.24,61,96.46,67.53c11.82,8.39,35.55,28,44.52,30H141c9.13-2.39,26.58-15.65,38.27-23.94,9.22-6.54,16.78,5.95,18.25,11.26a.61.61,0,0,0,1.21-.1C199.68,77.14,199.08,70.18,192.86,56.77Z" transform="translate(-27.95 -1.93)" style="stroke:#000;stroke-miterlimit:10;stroke-width:2px"/><circle cx="67.69" cy="99.67" r="36.28" style="opacity:0.4;fill:url(#a30637d9-2c1b-4470-8ae8-ddb521ca560f)"/><path d="M189.15,75.1c-11.46-6.42-42.85,19.11-42.85,19.11s.79-26.88,4.43-37.39c2.64-7.59,22.94-26.72,34.61-35.08,16.74,16.81,27.72,31.05,27.72,58.81,0,34.18-12.87,62.62-36.67,78.38-1.93,1.27-5.08-1.64-3.38-3.26C201.67,128.38,198.31,80.23,189.15,75.1Z" transform="translate(-27.95 -1.93)" style="fill:#bdccd4;stroke:#000;stroke-miterlimit:10;stroke-width:2px"/><path d="M80,76.1c12.84-6.42,53.37,17.11,53.37,17.11s-4-27.88-8.09-38.39c-3-7.59-27.94-25.72-41-34.08C65.5,37.55,53.19,53.79,53.19,81.55c0,34.18,14.43,62.62,41.1,78.38,2.15,1.27,5.69-1.64,3.78-3.26C66,129.38,69.72,81.23,80,76.1Z" transform="translate(-27.95 -1.93)" style="fill:#bdccd4;stroke:#000;stroke-miterlimit:10;stroke-width:2px"/><path d="M189,74.94C177.53,68.51,146.14,94,146.14,94s.79-26.87,4.44-37.38c2.63-7.59,22.93-26.72,34.6-35.09,16.74,16.81,27.72,31.05,27.72,58.81,0,34.18-12.87,62.62-36.67,78.38-1.93,1.27-5.08-1.64-3.38-3.26C201.51,128.21,198.15,80.07,189,74.94Z" transform="translate(-27.95 -1.93)" style="opacity:0.7000000000000001"/><path d="M152.85,75.57s1.9-9,2.66-11.53c2-6.46,21.66-21,21.66-21s-3.59,12.95-7,16.53S152.85,75.57,152.85,75.57Z" transform="translate(-27.95 -1.93)" style="stroke:#000;stroke-miterlimit:10;fill:url(#ebca07e3-2c01-4285-99c9-9190b692f571)"/><path d="M185.79,21l3.59,5.17,1.82,2.43s-5.07,27.09-9.5,30.17c-31.83,22.13-34.81,33.53-34.81,33.53s1.24-37.21,4.92-42.31S185.79,21,185.79,21Z" transform="translate(-27.95 -1.93)" style="fill:none;stroke:#000;stroke-miterlimit:10"/><path d="M212.74,80.62c0-27.76-11-42-27.72-58.81-4.19,3-9.48,8.39-14.68,13.14,4.57-1.76,12.61-5.26,13-1.25.51,5.62-.77,17.87-3.83,22S166,70.21,166,70.21,182.71,56,189.19,65.87c10.21,15.58,7.66,49,3.32,56.94-.71,1.3-1.07,3.64-2.43,5.78a70.81,70.81,0,0,1-17.39,27.15c-1.7,1.62,1.46,4.53,3.38,3.26C199.87,143.24,212.74,114.8,212.74,80.62Z" transform="translate(-27.95 -1.93)" style="opacity:0.30000000000000004"/><path d="M79.38,75.74c12.84-6.42,53.37,17.1,53.37,17.1s-4-27.87-8.09-38.38C122.52,49,108.8,37.92,96.43,29.07c3.42,4.92,18.79,27.12,23.31,35.27,5.11,9.19-7.14-.77-7.14-.77l8.68,17.11s-13.5-6.06-21.58-8.55C89.36,68.94,76.6,65.49,74,66.89s-17.73,14.79-5.87,56.94C73,141.06,89.62,153.19,94.47,158a8.69,8.69,0,0,0,1.92,1.44c1.36-.7,2.25-2.18,1.07-3.17C65.35,129,69.11,80.87,79.38,75.74Z" transform="translate(-27.95 -1.93)" style="opacity:0.4"/><path d="M122.51,73.77s-2.68-8.12-4.44-10.45C115.58,60,90.25,39.11,90.25,39.11s6.25,18.3,10.94,21.79S122.51,73.77,122.51,73.77Z" transform="translate(-27.95 -1.93)" style="stroke:#000;stroke-miterlimit:10;fill:url(#f834d602-0e6f-478a-a0cf-5d2cb0635751)"/><path d="M86.09,19.05,75.32,29.64s10,29.58,15.36,32.3C127.66,80.68,133,93,133,93s-2.57-37.91-6.78-43S86.09,19.05,86.09,19.05Z" transform="translate(-27.95 -1.93)" style="fill:none;stroke:#000;stroke-miterlimit:10"/><g id="ab4222e9-4098-412d-8438-4c92f2df6516" data-name="hand"><path d="M135,276.85l17.09-49.66-14.26-33.06,10.35-14.65s-6.69-3.52-9.52-7.31-19.21,3.68-21.41,6.83c-4.22,6.05-3.35,9.08-3.68,19.72s-4.35,16.49-3.68,21.67,6.59,5.36,2.52,17.39-23.59,26.78-23.59,26.78l4,12.29Z" transform="translate(-27.95 -1.93)"/><path d="M131,233.34c4.9,2.21,7.33,2.49,12.37,5.4,3.05,1.76,2.05,7.55-1.62,14.85-2,4-6.56,13.84-10.12,23.26h14.89c5.7-11.09,14.19-24.59,20.06-34.49,9.55-16.12,14.16-19.26,15.88-23.78,3.23-8.46,9.8-15.2,7.51-21.05s-4.67-16-9.53-21-5.72-3.45-8.48-7c-2.45-3.2-2.24-7-5.66-9.15,0,0-5.63-4.74-7.58-4.94S141.07,159.28,141,164c-.14,8.28,3.58,11,3.72,14.12-5.19,3.72-15.05,11.4-16.44,14.16-1.23,2.43,1.94,13.07,2.17,22C130.71,224.63,128.37,232.15,131,233.34Z" transform="translate(-27.95 -1.93)" style="fill:#bdccd4;stroke:#000;stroke-miterlimit:10;stroke-width:2px"/><path d="M95.67,276.85c-1.08-7.2-1.9-16.13-1.9-16.13s-7.59-4.47-12.7,10.07a18.52,18.52,0,0,0-.94,6.06Z" transform="translate(-27.95 -1.93)" style="fill:#bdccd4;stroke:#000;stroke-miterlimit:10;stroke-width:2px"/><polyline points="122.86 161.72 122.68 171.21 111.48 177.49 114.63 178.64 125.12 172.71"/><path d="M183.39,217.35a19.5,19.5,0,0,1-26.25,13.22,22,22,0,0,1-11.8-28.39A20.83,20.83,0,0,1,172.92,191C183.71,195.51,184.31,213.74,183.39,217.35Z" transform="translate(-27.95 -1.93)" style="fill:#bdccd4;stroke:#000;stroke-miterlimit:10;stroke-width:2px"/><path d="M185.05,217.73c-4.17,10-14.41,13-22.66,10.39-10.2-3.23-14.51-15.56-10.35-25.56s15.64-15,25.43-10.65S189.21,207.73,185.05,217.73Z" transform="translate(-27.95 -1.93)" style="stroke:#000;stroke-miterlimit:10;stroke-width:2px;fill:url(#ac1df36d-06ca-4bca-98e7-e328110340da)"/><ellipse cx="134.22" cy="198.07" rx="5.66" ry="5.87" style="fill:url(#f01d95e4-a3c9-4ac1-a0b6-dd73a5627174)"/><path d="M161.62,165.53a39,39,0,0,1,.17,8s9.87,2.21,11.74,3.92c2.05,1.86-2.21,14-2.21,14s15.7,2.42,9.42,21.47c-4.13,12.56-18.1,15.89-18.1,15.89l-9.49-.34s10.51,3.75,6.42,9.53c-2.49,3.54-12,23-18.74,38.92h5.44c5.7-11.16,14.32-24.85,20.25-34.86,9.55-16.12,15.67-17.93,17.39-22.44,3.24-8.47,8.29-16.54,6-22.39s-4.67-16-9.53-21-5.73-3.45-8.48-7.05c-2.45-3.2-2.24-7-5.66-9.15,0,0-5.63-4.74-7.58-4.94-1-.1-5.3.85-9.44,2.39C149.22,157.56,160.81,156.36,161.62,165.53Z" transform="translate(-27.95 -1.93)" style="opacity:0.4"/><path d="M87.5,277h8.15c-1.11-7.26-2-16.5-2-16.5a6.11,6.11,0,0,0-4.74-.32l.16,0S85.48,265.62,87.5,277Z" transform="translate(-27.95 -1.93)" style="opacity:0.4"/><polygon points="122.88 161.73 117.16 175.05 123.79 171.99 122.88 161.73" style="opacity:0.4"/></g></g></g></g></svg>